<svg aria-hidden="true" style="position:absolute;width:0;height:0;overflow:hidden" xmlns="http://www.w3.org/2000/svg"><defs>
<symbol id="phone" viewBox="0 0 32 32"><path fill="#8a8a8a" d="M31.898 23.822a5.542 5.542 0 0 0-.126-.561c-.251-.898-1.036-1.58-1.997-1.74l-7.296-1.214a2.53 2.53 0 0 0-2.412.925 5.542 5.542 0 0 0-.244.332c-.273.399-.728.549-1.13.374a16.606 16.606 0 0 1-8.633-8.635c-.175-.403-.029-.854.367-1.123.15-.103.295-.211.438-.325a2.549 2.549 0 0 0 .911-2.376l-1.128-7.166A2.508 2.508 0 0 0 8.964.307a5.976 5.976 0 0 0-.798-.2c-2.008-.359-4.062.211-5.64 1.566A7.212 7.212 0 0 0 .005 7.357c.362 13.453 11.187 24.278 24.64 24.642a7.2 7.2 0 0 0 5.655-2.507c1.368-1.58 1.95-3.646 1.6-5.667zm-2.876 4.571c-1.095 1.267-2.666 1.987-4.335 1.923C12.126 29.977 2.022 19.872 1.686 7.313a5.53 5.53 0 0 1 1.935-4.36A5.146 5.146 0 0 1 6.979 1.69c.295 0 .591.025.886.079.217.039.404.088.564.14.29.096.5.352.551.669l1.13 7.166a.866.866 0 0 1-.307.803 4.133 4.133 0 0 1-.327.243c-1.068.726-1.464 2.036-.963 3.186a18.28 18.28 0 0 0 9.507 9.509c1.149.497 2.461.103 3.193-.97.056-.081.115-.162.177-.241a.844.844 0 0 1 .81-.305l7.296 1.214c.32.054.576.263.652.532.034.116.062.246.088.394.268 1.523-.175 3.082-1.214 4.283z"/></symbol>
<symbol id="telegram" viewBox="0 0 32 32"><path fill="#8a8a8a" d="M32 16c0 8.837-7.163 16-16 16S0 24.837 0 16 7.163 0 16 0s16 7.163 16 16zm-15.426-4.188c-1.556.647-4.667 1.987-9.331 4.019-.757.301-1.154.596-1.19.884-.061.487.549.679 1.379.94l.35.111c.817.266 1.916.576 2.487.589.518.011 1.097-.203 1.735-.641 4.358-2.942 6.608-4.429 6.749-4.461.1-.023.238-.051.331.032s.084.241.074.283c-.06.258-2.454 2.483-3.693 3.634-.386.359-.66.614-.716.672-.125.13-.253.253-.376.372-.759.732-1.328 1.28.031 2.176.653.43 1.176.787 1.698 1.142.57.388 1.138.775 1.873 1.257.187.123.366.25.54.375.663.473 1.259.897 1.994.829.428-.039.869-.441 1.093-1.64.53-2.834 1.572-8.973 1.813-11.503.021-.222-.006-.505-.027-.63s-.066-.302-.228-.433c-.192-.156-.488-.188-.62-.186-.602.011-1.525.332-5.968 2.18z"/></symbol>
<symbol id="envelope" viewBox="0 0 41 32"><path fill="#8a8a8a"  d="M30.933 0H9.6C4.307 0 0 4.307 0 9.6v12.8C0 27.693 4.307 32 9.6 32h21.333c5.293 0 9.6-4.307 9.6-9.6V9.6c0-5.295-4.307-9.6-9.6-9.6zM9.6 2.133h21.333c3.268 0 6.022 2.125 7.031 5.054l-13.555 9.037a7.45 7.45 0 0 1-8.284 0L2.57 7.187c1.007-2.931 3.761-5.054 7.029-5.054zM38.4 22.4c0 4.117-3.349 7.467-7.467 7.467H9.6c-4.117 0-7.467-3.349-7.467-7.467V9.6c0-.045.013-.088.013-.132l12.796 8.531a9.579 9.579 0 0 0 10.65 0l12.796-8.531c0 .045.013.085.013.132v12.8z"/></symbol>
<symbol id="local-ua" viewBox="0 0 32 32">
<path fill="#5c5b5b" style="fill: var(--color1, #5c5b5b)" d="M13.452 16.36c0 0.899-0.186 1.586-0.558 2.063s-0.917 0.714-1.634 0.714c-0.708 0-1.25-0.234-1.625-0.701s-0.567-1.137-0.576-2.009v-1.196c0-0.908 0.188-1.597 0.563-2.067 0.378-0.47 0.921-0.705 1.629-0.705s1.25 0.234 1.625 0.701c0.375 0.464 0.567 1.132 0.576 2.004v1.196zM12.162 15.048c0-0.539-0.074-0.93-0.223-1.174-0.146-0.247-0.375-0.371-0.688-0.371-0.304 0-0.528 0.118-0.674 0.353-0.143 0.232-0.219 0.597-0.228 1.094v1.58c0 0.53 0.071 0.924 0.214 1.183 0.146 0.256 0.378 0.384 0.696 0.384 0.315 0 0.543-0.124 0.683-0.371s0.213-0.625 0.219-1.134v-1.545zM19.422 19.048h-4.455v-0.884l2.103-2.241c0.289-0.315 0.502-0.591 0.638-0.826 0.14-0.235 0.21-0.458 0.21-0.67 0-0.289-0.073-0.515-0.219-0.679-0.146-0.167-0.354-0.25-0.625-0.25-0.292 0-0.522 0.101-0.692 0.304-0.167 0.199-0.25 0.463-0.25 0.79h-1.295c0-0.396 0.094-0.757 0.281-1.085 0.19-0.327 0.458-0.583 0.804-0.768 0.345-0.188 0.737-0.281 1.174-0.281 0.67 0 1.189 0.161 1.558 0.482 0.372 0.321 0.558 0.775 0.558 1.362 0 0.321-0.083 0.649-0.25 0.982s-0.452 0.722-0.857 1.165l-1.478 1.558h2.795v1.040zM20.977 18.414c0-0.205 0.068-0.372 0.205-0.5 0.14-0.128 0.314-0.192 0.522-0.192 0.211 0 0.385 0.064 0.522 0.192 0.14 0.128 0.21 0.295 0.21 0.5 0 0.202-0.068 0.368-0.205 0.496-0.137 0.125-0.312 0.188-0.527 0.188-0.211 0-0.385-0.063-0.522-0.188-0.137-0.128-0.205-0.293-0.205-0.496z"></path>
<path fill="#8a8a8a" style="fill: var(--color2, #8a8a8a)" d="M30.706 15.204l0.016 0.411-2.597 0.1-0.016-0.411 2.597-0.1z"></path>
<path fill="#8a8a8a" style="fill: var(--color2, #8a8a8a)" d="M29.765 14.613c-0.177 0.028-0.342 0.018-0.495-0.029-0.154-0.047-0.279-0.129-0.374-0.244-0.097-0.115-0.159-0.255-0.185-0.419-0.039-0.244 0.008-0.454 0.141-0.631 0.133-0.178 0.328-0.293 0.586-0.347l0.095-0.017c0.178-0.028 0.343-0.019 0.494 0.028 0.151 0.046 0.275 0.126 0.373 0.242 0.097 0.115 0.159 0.256 0.186 0.423 0.040 0.255-0.012 0.473-0.156 0.654-0.146 0.18-0.361 0.292-0.644 0.337l-0.020 0.003zM29.735 14.202c0.186-0.030 0.326-0.091 0.419-0.185 0.092-0.094 0.128-0.209 0.106-0.346s-0.092-0.235-0.211-0.294c-0.119-0.060-0.282-0.073-0.488-0.041-0.183 0.029-0.321 0.092-0.416 0.188-0.094 0.095-0.131 0.21-0.11 0.345 0.021 0.133 0.091 0.229 0.209 0.29 0.117 0.061 0.28 0.075 0.49 0.042z"></path>
<path fill="#8a8a8a" style="fill: var(--color2, #8a8a8a)" d="M29.732 11.423c-0.032-0.098-0.086-0.169-0.164-0.215s-0.159-0.057-0.244-0.035l-0.12-0.368c0.11-0.031 0.222-0.030 0.337 0.003s0.216 0.095 0.306 0.185 0.155 0.199 0.196 0.324c0.079 0.244 0.063 0.462-0.049 0.656s-0.306 0.336-0.584 0.426l-0.040 0.013c-0.265 0.086-0.5 0.084-0.705-0.006s-0.348-0.257-0.428-0.502c-0.067-0.207-0.061-0.395 0.018-0.564 0.078-0.17 0.214-0.29 0.408-0.36l0.12 0.368c-0.098 0.037-0.169 0.098-0.213 0.183-0.044 0.084-0.050 0.176-0.018 0.274 0.041 0.127 0.119 0.209 0.233 0.248 0.114 0.039 0.264 0.029 0.451-0.031l0.063-0.020c0.189-0.061 0.319-0.141 0.39-0.239 0.070-0.099 0.084-0.212 0.042-0.341z"></path>
<path fill="#8a8a8a" style="fill: var(--color2, #8a8a8a)" d="M29.038 8.998c-0.023 0.032-0.067 0.071-0.132 0.119 0.181 0.056 0.313 0.169 0.398 0.338 0.082 0.164 0.102 0.322 0.060 0.473s-0.132 0.261-0.27 0.33c-0.175 0.087-0.341 0.089-0.498 0.007-0.159-0.083-0.298-0.245-0.419-0.487l-0.113-0.226-0.107 0.054c-0.085 0.042-0.141 0.1-0.167 0.172s-0.018 0.158 0.031 0.255c0.042 0.084 0.097 0.142 0.166 0.174s0.135 0.033 0.199 0.001l0.184 0.368c-0.090 0.045-0.188 0.057-0.296 0.036-0.108-0.020-0.211-0.070-0.306-0.15-0.096-0.081-0.175-0.184-0.238-0.31-0.096-0.192-0.124-0.369-0.084-0.531 0.039-0.162 0.145-0.288 0.318-0.378l0.739-0.369c0.147-0.074 0.255-0.153 0.322-0.238l0.026-0.013 0.188 0.375zM28.975 9.534c-0.036-0.073-0.088-0.132-0.155-0.178-0.068-0.047-0.139-0.072-0.215-0.074l-0.309 0.154 0.099 0.198c0.068 0.136 0.143 0.227 0.224 0.272s0.166 0.046 0.253 0.002c0.071-0.035 0.116-0.087 0.135-0.154 0.018-0.068 0.007-0.142-0.032-0.22z"></path>
<path fill="#8a8a8a" style="fill: var(--color2, #8a8a8a)" d="M28.237 7.651l0.226 0.344-2.172 1.427-0.226-0.344 2.172-1.427z"></path>
<path fill="#8a8a8a" style="fill: var(--color2, #8a8a8a)" d="M26.103 5.361c0.186-0.014 0.357 0.057 0.514 0.215 0.14 0.141 0.205 0.289 0.195 0.443s-0.094 0.308-0.25 0.463l-0.842 0.836-0.29-0.292 0.838-0.832c0.165-0.164 0.18-0.314 0.043-0.451-0.14-0.142-0.286-0.187-0.437-0.136l-0.933 0.926-0.29-0.292 1.299-1.29 0.273 0.275-0.12 0.134z"></path>
<path fill="#8a8a8a" style="fill: var(--color2, #8a8a8a)" d="M24.472 3.767c-0.006 0.039-0.027 0.094-0.063 0.166 0.186-0.032 0.356 0.008 0.508 0.121 0.148 0.109 0.237 0.241 0.268 0.394s0.001 0.292-0.091 0.417c-0.116 0.157-0.263 0.234-0.441 0.232-0.179-0.002-0.377-0.083-0.594-0.243l-0.203-0.15-0.071 0.097c-0.056 0.076-0.080 0.153-0.071 0.23s0.056 0.149 0.143 0.213c0.075 0.056 0.151 0.082 0.227 0.080s0.135-0.032 0.178-0.090l0.331 0.244c-0.060 0.081-0.142 0.136-0.247 0.167s-0.219 0.033-0.34 0.005c-0.122-0.028-0.24-0.085-0.353-0.168-0.172-0.127-0.278-0.272-0.316-0.435s-0.002-0.322 0.112-0.481l0.491-0.664c0.098-0.132 0.157-0.252 0.178-0.358l0.017-0.023 0.337 0.249zM24.659 4.274c-0.065-0.048-0.138-0.078-0.219-0.088s-0.157-0.001-0.225 0.031l-0.205 0.278 0.178 0.132c0.122 0.090 0.23 0.137 0.323 0.14s0.169-0.035 0.226-0.113c0.047-0.064 0.064-0.13 0.050-0.199-0.015-0.069-0.058-0.129-0.129-0.181z"></path>
<path fill="#8a8a8a" style="fill: var(--color2, #8a8a8a)" d="M22.076 2.382l0.372 0.174-1.101 2.354-0.372-0.174 1.101-2.354z"></path>
<path fill="#8a8a8a" style="fill: var(--color2, #8a8a8a)" d="M21.114 2.947c-0.056 0.17-0.14 0.313-0.252 0.426-0.113 0.115-0.242 0.189-0.388 0.221-0.146 0.034-0.299 0.025-0.458-0.028-0.235-0.077-0.4-0.215-0.496-0.414-0.097-0.199-0.111-0.426-0.040-0.679l0.029-0.092c0.056-0.171 0.14-0.314 0.251-0.427 0.11-0.114 0.238-0.187 0.386-0.22 0.146-0.034 0.3-0.024 0.461 0.029 0.245 0.081 0.415 0.227 0.51 0.438 0.093 0.212 0.095 0.454 0.005 0.727l-0.006 0.019zM20.735 2.785c0.059-0.179 0.068-0.331 0.027-0.458-0.041-0.125-0.127-0.209-0.259-0.252s-0.251-0.026-0.358 0.053c-0.108 0.079-0.194 0.217-0.259 0.415-0.058 0.176-0.066 0.328-0.023 0.455 0.041 0.128 0.127 0.213 0.256 0.255 0.128 0.042 0.245 0.024 0.354-0.053 0.108-0.076 0.195-0.215 0.262-0.416z"></path>
<path fill="#8a8a8a" style="fill: var(--color2, #8a8a8a)" d="M18.278 1.521c-0.101-0.017-0.19-0.001-0.267 0.047s-0.124 0.115-0.143 0.201l-0.382-0.062c0.023-0.112 0.075-0.211 0.157-0.298 0.081-0.086 0.183-0.148 0.305-0.187s0.248-0.047 0.378-0.026c0.253 0.041 0.44 0.156 0.561 0.344s0.159 0.426 0.112 0.714l-0.007 0.042c-0.045 0.275-0.154 0.483-0.328 0.624-0.174 0.142-0.388 0.192-0.642 0.151-0.215-0.035-0.379-0.126-0.494-0.274-0.115-0.147-0.16-0.323-0.133-0.527l0.382 0.062c-0.012 0.104 0.009 0.195 0.065 0.273 0.055 0.078 0.133 0.125 0.236 0.141 0.131 0.021 0.24-0.010 0.327-0.094 0.087-0.083 0.146-0.221 0.179-0.415l0.011-0.065c0.032-0.196 0.021-0.348-0.034-0.456-0.056-0.107-0.15-0.172-0.284-0.194z"></path>
<path fill="#8a8a8a" style="fill: var(--color2, #8a8a8a)" d="M15.801 1.026c0.018 0.035 0.032 0.092 0.045 0.172 0.133-0.134 0.294-0.2 0.484-0.197 0.184 0.003 0.333 0.058 0.448 0.164s0.171 0.237 0.168 0.392c-0.003 0.195-0.078 0.343-0.223 0.445-0.147 0.103-0.355 0.152-0.625 0.148l-0.252-0.004-0.002 0.12c-0.001 0.095 0.024 0.171 0.076 0.228 0.052 0.058 0.132 0.088 0.241 0.090 0.094 0.001 0.171-0.021 0.231-0.067 0.060-0.045 0.091-0.104 0.092-0.176l0.411 0.006c-0.002 0.1-0.036 0.193-0.104 0.279-0.068 0.087-0.159 0.154-0.274 0.202-0.116 0.048-0.244 0.071-0.385 0.069-0.214-0.003-0.384-0.060-0.51-0.17-0.126-0.109-0.189-0.261-0.189-0.456l0.013-0.825c0.003-0.165-0.019-0.296-0.063-0.395l0-0.029 0.42 0.006zM16.248 1.329c-0.081-0.001-0.158 0.017-0.229 0.056-0.073 0.038-0.128 0.091-0.165 0.157l-0.005 0.345 0.222 0.003c0.152 0.002 0.267-0.022 0.345-0.074s0.117-0.126 0.119-0.223c0.001-0.079-0.024-0.143-0.075-0.191-0.052-0.047-0.122-0.071-0.21-0.073z"></path>
<path fill="#8a8a8a" style="fill: var(--color2, #8a8a8a)" d="M14.191 1.123l0.409-0.043 0.27 2.585-0.409 0.043-0.27-2.585z"></path>
<path fill="#8a8a8a" style="fill: var(--color2, #8a8a8a)" d="M11.184 1.972c0.072-0.172 0.214-0.291 0.426-0.358 0.189-0.060 0.35-0.050 0.483 0.030 0.132 0.080 0.231 0.225 0.297 0.435l0.358 1.131-0.392 0.124-0.356-1.126c-0.070-0.222-0.197-0.303-0.381-0.245-0.19 0.060-0.297 0.169-0.321 0.327l0.396 1.253-0.392 0.124-0.552-1.745 0.369-0.117 0.064 0.168z"></path>
<path fill="#8a8a8a" style="fill: var(--color2, #8a8a8a)" d="M9.025 2.697c0.032 0.023 0.071 0.067 0.118 0.132 0.057-0.18 0.17-0.313 0.34-0.397 0.165-0.082 0.322-0.101 0.473-0.059s0.26 0.133 0.329 0.271c0.087 0.175 0.088 0.341 0.005 0.498-0.084 0.159-0.247 0.298-0.488 0.417l-0.226 0.112 0.053 0.108c0.042 0.085 0.099 0.141 0.172 0.168s0.158 0.018 0.255-0.030c0.084-0.042 0.142-0.097 0.175-0.166 0.033-0.068 0.034-0.134 0.002-0.199l0.368-0.182c0.045 0.090 0.056 0.189 0.035 0.296-0.021 0.108-0.071 0.21-0.151 0.305-0.081 0.096-0.185 0.175-0.311 0.237-0.192 0.095-0.369 0.122-0.531 0.082s-0.287-0.146-0.377-0.319l-0.366-0.74c-0.073-0.148-0.152-0.255-0.237-0.322l-0.013-0.026 0.376-0.186zM9.561 2.762c-0.073 0.036-0.132 0.087-0.178 0.154-0.047 0.067-0.072 0.139-0.075 0.215l0.153 0.309 0.199-0.098c0.136-0.068 0.227-0.142 0.273-0.224s0.046-0.166 0.003-0.253c-0.035-0.071-0.086-0.116-0.154-0.135-0.068-0.018-0.141-0.007-0.22 0.032z"></path>
<path fill="#8a8a8a" style="fill: var(--color2, #8a8a8a)" d="M6.706 4.197l0.325-0.251 1.589 2.056-0.325 0.251-1.589-2.056z"></path>
<path fill="#8a8a8a" style="fill: var(--color2, #8a8a8a)" d="M6.771 5.312c0.126 0.128 0.214 0.268 0.264 0.419s0.057 0.301 0.019 0.446c-0.037 0.146-0.115 0.277-0.234 0.394-0.176 0.173-0.374 0.257-0.595 0.252s-0.429-0.096-0.622-0.275l-0.069-0.067c-0.127-0.129-0.215-0.268-0.265-0.418s-0.057-0.298-0.019-0.444c0.037-0.146 0.116-0.278 0.236-0.397 0.184-0.181 0.392-0.266 0.623-0.253 0.231 0.014 0.447 0.124 0.648 0.328l0.014 0.014zM6.453 5.575c-0.132-0.134-0.264-0.212-0.394-0.234s-0.244 0.017-0.343 0.115-0.138 0.212-0.116 0.343c0.021 0.132 0.104 0.272 0.251 0.421 0.13 0.132 0.261 0.208 0.394 0.229s0.247-0.015 0.344-0.111c0.096-0.094 0.134-0.207 0.115-0.339s-0.102-0.272-0.251-0.423z"></path>
<path fill="#8a8a8a" style="fill: var(--color2, #8a8a8a)" d="M4.21 7.174c-0.061 0.082-0.088 0.168-0.081 0.258s0.045 0.163 0.113 0.219l-0.231 0.311c-0.089-0.072-0.153-0.164-0.193-0.276s-0.048-0.231-0.026-0.357 0.072-0.242 0.151-0.347c0.153-0.205 0.341-0.319 0.563-0.34s0.451 0.055 0.685 0.23l0.034 0.025c0.223 0.166 0.358 0.359 0.403 0.578s-0.008 0.433-0.161 0.639c-0.13 0.175-0.287 0.279-0.471 0.312-0.183 0.035-0.36-0.006-0.53-0.124l0.231-0.311c0.087 0.059 0.178 0.082 0.272 0.068s0.172-0.061 0.234-0.144c0.079-0.107 0.102-0.218 0.067-0.334s-0.129-0.232-0.286-0.35l-0.053-0.039c-0.159-0.119-0.299-0.179-0.421-0.18-0.121 0-0.222 0.054-0.303 0.163z"></path>
<path fill="#8a8a8a" style="fill: var(--color2, #8a8a8a)" d="M2.632 9.152c0.039 0.001 0.097 0.013 0.173 0.039-0.059-0.18-0.044-0.353 0.045-0.52 0.086-0.162 0.203-0.27 0.35-0.323s0.289-0.044 0.425 0.029c0.172 0.092 0.27 0.226 0.294 0.402 0.024 0.178-0.027 0.386-0.154 0.623l-0.119 0.223 0.106 0.056c0.084 0.045 0.163 0.057 0.237 0.036s0.139-0.077 0.19-0.173c0.044-0.083 0.059-0.161 0.045-0.236-0.013-0.075-0.051-0.129-0.115-0.163l0.193-0.363c0.089 0.047 0.156 0.121 0.201 0.22 0.046 0.1 0.065 0.212 0.055 0.336s-0.049 0.25-0.115 0.374c-0.101 0.189-0.229 0.315-0.384 0.376-0.154 0.062-0.319 0.049-0.492-0.040l-0.729-0.388c-0.145-0.077-0.272-0.119-0.381-0.124l-0.025-0.014 0.197-0.37zM3.105 8.893c-0.038 0.072-0.057 0.148-0.055 0.229s0.022 0.155 0.064 0.218l0.305 0.162 0.104-0.196c0.072-0.134 0.102-0.248 0.091-0.341s-0.059-0.162-0.145-0.207c-0.070-0.037-0.138-0.044-0.204-0.020-0.066 0.025-0.119 0.076-0.161 0.154z"></path>
<path fill="#8a8a8a" style="fill: var(--color2, #8a8a8a)" d="M1.997 10.589l0.149-0.383 2.423 0.94-0.149 0.383-2.423-0.94z"></path>
<path fill="#8a8a8a" style="fill: var(--color2, #8a8a8a)" d="M1.375 13.639c-0.12-0.143-0.161-0.324-0.123-0.543 0.033-0.196 0.116-0.334 0.248-0.416 0.132-0.080 0.306-0.102 0.523-0.065l1.169 0.2-0.069 0.405-1.164-0.199c-0.229-0.039-0.36 0.036-0.392 0.226-0.034 0.197 0.014 0.342 0.144 0.435l1.296 0.222-0.069 0.405-1.804-0.309 0.065-0.382 0.178 0.020z"></path>
<path fill="#8a8a8a" style="fill: var(--color2, #8a8a8a)" d="M1.026 15.906c0.035-0.018 0.092-0.032 0.172-0.045-0.134-0.133-0.2-0.294-0.197-0.484 0.003-0.184 0.058-0.333 0.164-0.448s0.237-0.171 0.392-0.168c0.195 0.003 0.343 0.078 0.445 0.223 0.103 0.147 0.152 0.355 0.148 0.625l-0.004 0.252 0.12 0.002c0.095 0.001 0.171-0.024 0.228-0.076 0.058-0.052 0.088-0.132 0.090-0.241 0.001-0.094-0.021-0.171-0.067-0.231-0.045-0.060-0.104-0.091-0.176-0.092l0.006-0.411c0.1 0.002 0.193 0.036 0.279 0.104 0.087 0.068 0.154 0.159 0.202 0.274 0.048 0.116 0.071 0.244 0.069 0.385-0.003 0.214-0.060 0.384-0.17 0.51-0.109 0.126-0.261 0.189-0.456 0.189l-0.825-0.013c-0.165-0.003-0.296 0.019-0.395 0.063l-0.029-0 0.006-0.419zM1.329 15.459c-0.001 0.081 0.017 0.158 0.056 0.229 0.038 0.073 0.091 0.128 0.157 0.165l0.345 0.005 0.003-0.222c0.002-0.152-0.022-0.267-0.074-0.345s-0.126-0.117-0.223-0.118c-0.079-0.001-0.143 0.024-0.191 0.075-0.047 0.052-0.071 0.122-0.073 0.21z"></path>
<path fill="#8a8a8a" style="fill: var(--color2, #8a8a8a)" d="M1.297 18.7l-0.075-0.404 2.554-0.477 0.075 0.404-2.554 0.477z"></path>
<path fill="#8a8a8a" style="fill: var(--color2, #8a8a8a)" d="M2.315 19.156c0.171-0.054 0.335-0.069 0.493-0.044 0.159 0.024 0.295 0.086 0.406 0.186 0.113 0.099 0.195 0.228 0.245 0.387 0.075 0.235 0.059 0.45-0.046 0.645-0.105 0.195-0.281 0.338-0.528 0.43l-0.091 0.031c-0.172 0.054-0.336 0.070-0.493 0.046-0.156-0.023-0.291-0.084-0.404-0.184-0.113-0.099-0.195-0.229-0.246-0.391-0.078-0.246-0.059-0.469 0.058-0.67 0.118-0.199 0.313-0.342 0.587-0.429l0.019-0.006zM2.405 19.559c-0.18 0.057-0.309 0.138-0.387 0.245-0.078 0.106-0.096 0.225-0.054 0.358s0.126 0.219 0.252 0.259c0.127 0.042 0.29 0.031 0.488-0.032 0.176-0.056 0.304-0.138 0.383-0.247 0.079-0.108 0.099-0.227 0.057-0.357-0.040-0.128-0.124-0.213-0.25-0.256-0.125-0.043-0.288-0.033-0.491 0.031z"></path>
<path fill="#8a8a8a" style="fill: var(--color2, #8a8a8a)" d="M2.798 22.266c0.046 0.092 0.11 0.155 0.194 0.189s0.166 0.034 0.247-0.001l0.172 0.347c-0.104 0.047-0.215 0.062-0.334 0.046s-0.227-0.062-0.329-0.139-0.182-0.174-0.241-0.292c-0.114-0.229-0.129-0.448-0.047-0.656s0.254-0.377 0.516-0.506l0.038-0.019c0.25-0.124 0.482-0.156 0.698-0.096 0.217 0.059 0.382 0.204 0.496 0.434 0.097 0.195 0.118 0.382 0.064 0.561-0.052 0.179-0.169 0.318-0.351 0.416l-0.172-0.347c0.092-0.051 0.153-0.121 0.184-0.212s0.024-0.181-0.022-0.274c-0.059-0.119-0.148-0.19-0.267-0.211-0.118-0.022-0.265 0.010-0.441 0.096l-0.059 0.029c-0.178 0.088-0.295 0.186-0.351 0.293-0.055 0.108-0.052 0.222 0.008 0.344z"></path>
<path fill="#8a8a8a" style="fill: var(--color2, #8a8a8a)" d="M3.85 24.588c0.018-0.035 0.056-0.080 0.113-0.137-0.187-0.029-0.335-0.121-0.443-0.276-0.105-0.151-0.148-0.304-0.129-0.459s0.092-0.277 0.219-0.366c0.16-0.112 0.324-0.138 0.491-0.080 0.169 0.059 0.331 0.199 0.486 0.42l0.145 0.207 0.098-0.069c0.078-0.054 0.124-0.119 0.14-0.195s-0.006-0.159-0.068-0.248c-0.054-0.077-0.117-0.126-0.19-0.148s-0.138-0.013-0.197 0.028l-0.236-0.337c0.082-0.058 0.178-0.084 0.287-0.079s0.218 0.039 0.324 0.103c0.107 0.066 0.2 0.156 0.281 0.272 0.123 0.176 0.176 0.347 0.161 0.513s-0.101 0.306-0.259 0.421l-0.676 0.473c-0.135 0.094-0.229 0.189-0.283 0.283l-0.024 0.016-0.241-0.344zM3.834 24.048c0.047 0.067 0.106 0.118 0.179 0.153s0.148 0.050 0.223 0.042l0.283-0.198-0.127-0.182c-0.087-0.125-0.175-0.203-0.262-0.236s-0.171-0.021-0.25 0.035c-0.065 0.045-0.102 0.103-0.111 0.172-0.007 0.070 0.014 0.141 0.064 0.213z"></path>
<path fill="#8a8a8a" style="fill: var(--color2, #8a8a8a)" d="M4.835 25.802l-0.273-0.307 1.941-1.728 0.273 0.307-1.941 1.728z"></path>
<path fill="#8a8a8a" style="fill: var(--color2, #8a8a8a)" d="M7.21 27.712c-0.182 0.041-0.362-0.006-0.539-0.14-0.158-0.12-0.243-0.257-0.255-0.411s0.050-0.318 0.183-0.494l0.715-0.946 0.328 0.248-0.712 0.942c-0.14 0.185-0.133 0.336 0.021 0.452 0.159 0.12 0.31 0.145 0.452 0.072l0.793-1.049 0.328 0.248-1.104 1.46-0.309-0.234 0.1-0.149z"></path>
<path fill="#8a8a8a" style="fill: var(--color2, #8a8a8a)" d="M9.058 29.069c0.001-0.039 0.014-0.097 0.039-0.173-0.18 0.058-0.353 0.043-0.52-0.047-0.162-0.087-0.269-0.204-0.322-0.352s-0.042-0.289 0.031-0.425c0.092-0.172 0.227-0.269 0.403-0.293 0.178-0.023 0.385 0.029 0.623 0.156l0.222 0.119 0.057-0.106c0.045-0.084 0.057-0.163 0.037-0.237s-0.077-0.139-0.172-0.19c-0.082-0.044-0.161-0.060-0.236-0.046-0.075 0.012-0.129 0.051-0.163 0.114l-0.362-0.195c0.048-0.088 0.121-0.155 0.221-0.2 0.1-0.046 0.212-0.064 0.336-0.054s0.249 0.050 0.374 0.116c0.189 0.101 0.314 0.23 0.375 0.386 0.062 0.155 0.048 0.319-0.042 0.492l-0.391 0.727c-0.078 0.145-0.12 0.272-0.125 0.38l-0.014 0.025-0.37-0.199zM8.801 28.595c0.072 0.039 0.148 0.057 0.229 0.056 0.082-0.001 0.155-0.022 0.218-0.063l0.163-0.304-0.195-0.105c-0.134-0.072-0.248-0.103-0.34-0.092s-0.162 0.058-0.208 0.144c-0.037 0.070-0.044 0.138-0.021 0.204 0.025 0.066 0.076 0.119 0.153 0.161z"></path>
<path fill="#8a8a8a" style="fill: var(--color2, #8a8a8a)" d="M11.681 30.12l-0.394-0.118 0.746-2.489 0.394 0.118-0.746 2.489z"></path>
<path fill="#8a8a8a" style="fill: var(--color2, #8a8a8a)" d="M12.562 29.427c0.030-0.177 0.092-0.33 0.187-0.459 0.094-0.131 0.211-0.222 0.351-0.277s0.292-0.068 0.457-0.040c0.243 0.042 0.427 0.154 0.552 0.337 0.126 0.183 0.172 0.405 0.14 0.666l-0.015 0.095c-0.030 0.178-0.092 0.331-0.185 0.459-0.092 0.128-0.208 0.22-0.349 0.275-0.14 0.055-0.293 0.068-0.46 0.040-0.255-0.043-0.444-0.163-0.569-0.358-0.123-0.196-0.161-0.435-0.112-0.718l0.003-0.020zM12.961 29.531c-0.032 0.186-0.018 0.338 0.040 0.456s0.157 0.188 0.293 0.212 0.252-0.012 0.346-0.106c0.095-0.093 0.16-0.243 0.195-0.449 0.031-0.182 0.016-0.334-0.044-0.454-0.060-0.12-0.157-0.192-0.291-0.215-0.132-0.023-0.246 0.012-0.342 0.104s-0.161 0.242-0.197 0.451z"></path>
<path fill="#8a8a8a" style="fill: var(--color2, #8a8a8a)" d="M15.494 30.422c0.103 0.002 0.188-0.026 0.257-0.085s0.106-0.132 0.113-0.219l0.387 0.007c-0.007 0.114-0.044 0.22-0.113 0.318-0.068 0.097-0.16 0.173-0.275 0.228s-0.238 0.082-0.37 0.079c-0.256-0.005-0.457-0.092-0.604-0.26s-0.217-0.399-0.212-0.691l0.001-0.042c0.005-0.278 0.084-0.5 0.236-0.664 0.152-0.165 0.357-0.245 0.614-0.24 0.218 0.004 0.393 0.071 0.527 0.201 0.135 0.129 0.204 0.297 0.207 0.503l-0.387-0.008c-0.002-0.105-0.037-0.192-0.103-0.261-0.065-0.069-0.15-0.104-0.253-0.106-0.133-0.003-0.237 0.044-0.311 0.139-0.074 0.094-0.113 0.24-0.118 0.436l-0.001 0.066c-0.004 0.198 0.029 0.347 0.098 0.447 0.070 0.099 0.173 0.149 0.308 0.152z"></path>
<path fill="#8a8a8a" style="fill: var(--color2, #8a8a8a)" d="M18.134 30.552c-0.023-0.032-0.046-0.087-0.070-0.163-0.111 0.153-0.261 0.242-0.449 0.267-0.182 0.025-0.338-0.007-0.467-0.095s-0.204-0.209-0.225-0.362c-0.026-0.194 0.025-0.351 0.154-0.473 0.13-0.124 0.329-0.203 0.596-0.24l0.25-0.034-0.016-0.119c-0.013-0.094-0.049-0.165-0.109-0.214-0.060-0.050-0.144-0.068-0.251-0.053-0.093 0.013-0.166 0.046-0.218 0.101-0.053 0.054-0.075 0.117-0.065 0.188l-0.407 0.055c-0.014-0.099 0.007-0.197 0.061-0.292 0.054-0.096 0.134-0.177 0.24-0.241 0.107-0.064 0.231-0.106 0.371-0.125 0.212-0.029 0.389 0.002 0.53 0.092 0.141 0.089 0.226 0.23 0.255 0.423l0.111 0.818c0.022 0.163 0.063 0.29 0.122 0.381l0.004 0.028-0.416 0.056zM17.646 30.32c0.080-0.011 0.153-0.041 0.218-0.089 0.066-0.049 0.113-0.109 0.14-0.18l-0.046-0.342-0.22 0.030c-0.151 0.021-0.261 0.062-0.33 0.125s-0.097 0.142-0.084 0.238c0.011 0.078 0.045 0.137 0.103 0.177 0.059 0.039 0.132 0.052 0.219 0.040z"></path>
<path fill="#8a8a8a" style="fill: var(--color2, #8a8a8a)" d="M19.689 30.227l-0.398 0.103-0.651-2.516 0.398-0.103 0.651 2.516z"></path>
<path fill="#8a8a8a" style="fill: var(--color2, #8a8a8a)" d="M22.473 28.979c-0.046 0.181-0.17 0.32-0.369 0.416-0.179 0.087-0.339 0.1-0.482 0.041-0.142-0.060-0.261-0.189-0.357-0.387l-0.518-1.067 0.37-0.18 0.516 1.062c0.102 0.209 0.239 0.271 0.413 0.187 0.18-0.087 0.27-0.211 0.27-0.37l-0.574-1.182 0.37-0.18 0.8 1.647-0.348 0.169-0.088-0.157z"></path>
<path fill="#8a8a8a" style="fill: var(--color2, #8a8a8a)" d="M24.533 27.939c-0.035-0.018-0.080-0.056-0.136-0.113-0.030 0.187-0.122 0.334-0.278 0.442-0.151 0.105-0.304 0.147-0.459 0.128s-0.277-0.093-0.365-0.22c-0.111-0.16-0.137-0.324-0.078-0.492 0.060-0.169 0.2-0.331 0.422-0.484l0.207-0.144-0.069-0.099c-0.054-0.078-0.119-0.125-0.195-0.141s-0.159 0.005-0.248 0.067c-0.077 0.053-0.126 0.117-0.148 0.189s-0.014 0.138 0.028 0.197l-0.338 0.234c-0.057-0.082-0.083-0.178-0.078-0.288 0.005-0.11 0.039-0.218 0.105-0.324s0.157-0.2 0.273-0.28c0.176-0.122 0.347-0.175 0.514-0.159 0.166 0.015 0.306 0.102 0.42 0.261l0.471 0.678c0.094 0.135 0.188 0.23 0.282 0.284l0.016 0.024-0.345 0.239zM23.993 27.953c0.067-0.046 0.118-0.106 0.154-0.179s0.051-0.148 0.043-0.223l-0.197-0.283-0.182 0.126c-0.125 0.087-0.204 0.174-0.237 0.261s-0.021 0.171 0.034 0.25c0.045 0.065 0.102 0.102 0.172 0.111 0.070 0.008 0.141-0.013 0.213-0.064z"></path>
<path fill="#8a8a8a" style="fill: var(--color2, #8a8a8a)" d="M26.605 26.135l-0.285 0.296-1.87-1.804 0.285-0.296 1.871 1.804z"></path>
<path fill="#8a8a8a" style="fill: var(--color2, #8a8a8a)" d="M26.39 25.039c-0.143-0.108-0.25-0.234-0.322-0.377-0.072-0.144-0.1-0.29-0.084-0.439s0.073-0.291 0.174-0.424c0.149-0.197 0.333-0.309 0.552-0.335s0.439 0.033 0.656 0.182l0.078 0.057c0.144 0.109 0.251 0.234 0.323 0.375s0.1 0.286 0.084 0.436c-0.015 0.149-0.074 0.292-0.176 0.427-0.156 0.206-0.349 0.32-0.58 0.34-0.231 0.019-0.461-0.058-0.689-0.23l-0.016-0.012zM26.666 24.733c0.15 0.114 0.292 0.172 0.424 0.174s0.239-0.053 0.323-0.163c0.084-0.111 0.105-0.229 0.065-0.356-0.039-0.127-0.142-0.254-0.309-0.38-0.148-0.112-0.289-0.168-0.423-0.169s-0.242 0.051-0.324 0.16c-0.081 0.107-0.102 0.224-0.064 0.352 0.037 0.127 0.14 0.254 0.309 0.382z"></path>
<path fill="#8a8a8a" style="fill: var(--color2, #8a8a8a)" d="M28.671 22.809c0.049-0.090 0.062-0.18 0.042-0.267s-0.069-0.155-0.144-0.2l0.183-0.341c0.098 0.058 0.175 0.14 0.231 0.245 0.055 0.105 0.081 0.221 0.077 0.349s-0.036 0.249-0.099 0.366c-0.121 0.226-0.29 0.365-0.507 0.419s-0.454 0.011-0.712-0.127l-0.037-0.020c-0.246-0.132-0.406-0.303-0.483-0.513s-0.056-0.429 0.066-0.656c0.103-0.192 0.243-0.318 0.42-0.378 0.176-0.061 0.357-0.046 0.542 0.045l-0.183 0.341c-0.094-0.046-0.187-0.055-0.279-0.027s-0.161 0.086-0.21 0.177c-0.063 0.117-0.069 0.231-0.018 0.34s0.162 0.21 0.334 0.304l0.058 0.031c0.175 0.094 0.322 0.133 0.442 0.117 0.12-0.018 0.212-0.086 0.276-0.205z"></path>
<path fill="#8a8a8a" style="fill: var(--color2, #8a8a8a)" d="M29.938 20.649c-0.039 0.005-0.098 0.001-0.177-0.013 0.084 0.169 0.095 0.343 0.031 0.521-0.062 0.173-0.162 0.297-0.3 0.371s-0.28 0.085-0.425 0.033c-0.184-0.066-0.3-0.184-0.349-0.355-0.050-0.172-0.029-0.385 0.062-0.639l0.085-0.237-0.113-0.041c-0.089-0.032-0.169-0.032-0.24-0.002-0.072 0.030-0.126 0.097-0.163 0.199-0.032 0.088-0.035 0.168-0.011 0.241 0.023 0.072 0.069 0.12 0.137 0.144l-0.139 0.387c-0.094-0.034-0.171-0.097-0.231-0.189-0.060-0.092-0.095-0.2-0.103-0.324-0.008-0.125 0.012-0.254 0.059-0.387 0.072-0.202 0.181-0.344 0.326-0.428 0.144-0.084 0.308-0.094 0.493-0.032l0.777 0.278c0.155 0.056 0.286 0.078 0.394 0.068l0.027 0.010-0.142 0.395zM29.507 20.974c0.027-0.076 0.035-0.155 0.021-0.235-0.013-0.081-0.044-0.15-0.095-0.207l-0.325-0.116-0.075 0.209c-0.051 0.143-0.065 0.26-0.041 0.35s0.082 0.151 0.173 0.184c0.074 0.027 0.142 0.024 0.204-0.009 0.061-0.034 0.107-0.093 0.137-0.176z"></path>
<path fill="#8a8a8a" style="fill: var(--color2, #8a8a8a)" d="M30.373 19.083l-0.091 0.401-2.534-0.574 0.091-0.401 2.534 0.574z"></path>
<path fill="#8a8a8a" style="fill: var(--color2, #8a8a8a)" d="M30.543 15.968c0.139 0.124 0.206 0.297 0.201 0.519-0.005 0.198-0.066 0.348-0.185 0.448-0.119 0.099-0.288 0.146-0.508 0.141l-1.186-0.027 0.009-0.411 1.181 0.027c0.232 0.005 0.35-0.088 0.355-0.281 0.005-0.2-0.064-0.336-0.205-0.409l-1.314-0.030 0.010-0.411 1.83 0.042-0.009 0.387-0.179 0.006z"></path>
</symbol>
<symbol id="digital-show" viewBox="0 0 32 32">
<path fill="#5c5b5b" style="fill: var(--color1, #5c5b5b)" d="M13.559 16.491c0 0.906-0.188 1.599-0.563 2.079s-0.924 0.72-1.647 0.72c-0.714 0-1.26-0.236-1.638-0.706s-0.572-1.146-0.581-2.025v-1.206c0-0.915 0.189-1.61 0.567-2.084 0.381-0.474 0.928-0.711 1.643-0.711s1.26 0.236 1.638 0.707c0.378 0.468 0.572 1.141 0.581 2.020v1.206zM12.259 15.168c0-0.543-0.075-0.938-0.225-1.184-0.147-0.249-0.378-0.373-0.693-0.373-0.306 0-0.533 0.118-0.68 0.355-0.144 0.234-0.22 0.601-0.229 1.103v1.593c0 0.534 0.072 0.931 0.216 1.192 0.147 0.258 0.381 0.387 0.702 0.387 0.318 0 0.547-0.125 0.688-0.373s0.214-0.63 0.22-1.143v-1.557zM18.246 19.2h-1.3v-5.013l-1.553 0.482v-1.057l2.713-0.972h0.14v6.561zM21.145 18.561c0-0.207 0.069-0.375 0.207-0.504 0.141-0.129 0.317-0.194 0.526-0.194 0.213 0 0.389 0.064 0.526 0.194 0.141 0.129 0.211 0.297 0.211 0.504 0 0.204-0.069 0.37-0.207 0.5-0.138 0.126-0.315 0.189-0.531 0.189-0.213 0-0.388-0.063-0.526-0.189-0.138-0.129-0.207-0.296-0.207-0.5z"></path>
<path fill="#8a8a8a" style="fill: var(--color2, #8a8a8a)" d="M29.988 15.945c-0.224 0.016-0.408-0.022-0.551-0.116s-0.222-0.229-0.235-0.403c-0.011-0.154 0.033-0.283 0.134-0.386l-0.745 0.055-0.024-0.327 2.067-0.152 0.022 0.296-0.149 0.027c0.126 0.089 0.194 0.215 0.206 0.379 0.013 0.17-0.046 0.314-0.175 0.43s-0.312 0.181-0.548 0.199zM29.992 15.616c0.148-0.011 0.262-0.048 0.341-0.11 0.078-0.063 0.114-0.148 0.106-0.253-0.010-0.134-0.077-0.227-0.201-0.28l-0.622 0.046c-0.112 0.069-0.163 0.17-0.154 0.303 0.008 0.106 0.056 0.184 0.144 0.236s0.216 0.071 0.384 0.058z"></path>
<path fill="#8a8a8a" style="fill: var(--color2, #8a8a8a)" d="M30.432 13.235l0.063 0.322-1.433 0.279-0.063-0.322 1.433-0.279zM28.694 13.929c-0.049 0.010-0.093 0.002-0.132-0.022s-0.064-0.067-0.075-0.126c-0.012-0.058-0.004-0.106 0.023-0.145s0.064-0.062 0.114-0.072c0.049-0.009 0.092-0.001 0.131 0.024s0.063 0.068 0.074 0.126 0.004 0.106-0.021 0.144c-0.027 0.037-0.064 0.061-0.113 0.070z"></path>
<path fill="#8a8a8a" style="fill: var(--color2, #8a8a8a)" d="M29.578 12.639c-0.216 0.070-0.404 0.075-0.565 0.016s-0.271-0.174-0.325-0.341c-0.051-0.158-0.037-0.301 0.044-0.427l-0.144 0.031-0.091-0.281 1.346-0.437c0.182-0.059 0.344-0.049 0.487 0.031s0.244 0.214 0.306 0.407c0.033 0.102 0.044 0.208 0.033 0.32-0.011 0.11-0.042 0.202-0.094 0.274l-0.235-0.087c0.083-0.133 0.101-0.269 0.056-0.41-0.034-0.104-0.088-0.176-0.164-0.218s-0.167-0.045-0.276-0.010l-0.093 0.030c0.129 0.057 0.218 0.161 0.267 0.311 0.053 0.163 0.031 0.317-0.064 0.462s-0.258 0.254-0.487 0.328zM29.504 12.32c0.14-0.045 0.24-0.109 0.302-0.192 0.061-0.083 0.075-0.175 0.042-0.276-0.041-0.126-0.125-0.202-0.252-0.227l-0.611 0.198c-0.086 0.093-0.109 0.203-0.068 0.328 0.033 0.103 0.1 0.169 0.2 0.2s0.229 0.019 0.387-0.032z"></path>
<path fill="#8a8a8a" style="fill: var(--color2, #8a8a8a)" d="M29.337 9.841l0.139 0.297-1.323 0.618-0.139-0.297 1.322-0.618zM27.819 10.936c-0.046 0.021-0.090 0.025-0.134 0.010s-0.078-0.050-0.103-0.104c-0.025-0.054-0.030-0.102-0.013-0.146s0.047-0.076 0.093-0.097c0.045-0.021 0.089-0.024 0.133-0.009 0.043 0.016 0.077 0.050 0.102 0.104s0.030 0.102 0.014 0.145c-0.017 0.043-0.048 0.074-0.092 0.095z"></path>
<path fill="#8a8a8a" style="fill: var(--color2, #8a8a8a)" d="M28.45 8.656c-0.043-0.070-0.099-0.115-0.168-0.136s-0.134-0.015-0.196 0.019l-0.162-0.263c0.079-0.045 0.167-0.065 0.262-0.061s0.185 0.033 0.272 0.086 0.158 0.125 0.213 0.214c0.107 0.174 0.136 0.346 0.086 0.518s-0.174 0.318-0.372 0.44l-0.029 0.018c-0.189 0.117-0.371 0.159-0.547 0.128s-0.318-0.134-0.426-0.308c-0.091-0.148-0.122-0.295-0.092-0.441 0.028-0.146 0.111-0.265 0.248-0.356l0.162 0.263c-0.069 0.047-0.113 0.108-0.13 0.182s-0.006 0.145 0.038 0.216c0.056 0.090 0.131 0.14 0.228 0.148 0.095 0.009 0.21-0.027 0.343-0.109l0.045-0.028c0.135-0.083 0.221-0.169 0.258-0.258 0.036-0.090 0.025-0.18-0.032-0.272z"></path>
<path fill="#8a8a8a" style="fill: var(--color2, #8a8a8a)" d="M27.584 6.977l0.203 0.258-1.148 0.901-0.203-0.258 1.148-0.901zM26.352 8.386c-0.040 0.031-0.082 0.045-0.128 0.040s-0.088-0.031-0.124-0.077-0.052-0.093-0.046-0.139c0.006-0.046 0.029-0.085 0.069-0.116s0.081-0.043 0.128-0.038c0.046 0.005 0.087 0.032 0.123 0.078s0.052 0.093 0.047 0.138c-0.007 0.045-0.029 0.083-0.068 0.114z"></path>
<path fill="#8a8a8a" style="fill: var(--color2, #8a8a8a)" d="M25.437 7.254l0.258-0.244-0.177-0.187 0.177-0.167 0.177 0.187 0.593-0.559c0.040-0.038 0.062-0.074 0.066-0.107 0.002-0.033-0.016-0.070-0.055-0.111-0.026-0.027-0.056-0.052-0.089-0.074l0.185-0.174c0.066 0.040 0.123 0.085 0.171 0.136 0.173 0.183 0.158 0.37-0.044 0.561l-0.602 0.568 0.165 0.175-0.177 0.167-0.165-0.175-0.258 0.244-0.225-0.238z"></path>
<path fill="#8a8a8a" style="fill: var(--color2, #8a8a8a)" d="M25.316 4.655c-0.007 0.031-0.026 0.074-0.057 0.129 0.15-0.018 0.283 0.021 0.4 0.117 0.113 0.093 0.179 0.201 0.198 0.325s-0.011 0.233-0.089 0.328c-0.099 0.12-0.219 0.176-0.36 0.167-0.143-0.009-0.297-0.082-0.463-0.218l-0.155-0.128-0.061 0.074c-0.048 0.058-0.070 0.118-0.066 0.18s0.039 0.121 0.105 0.176c0.058 0.047 0.117 0.072 0.178 0.073s0.109-0.020 0.145-0.064l0.253 0.208c-0.051 0.062-0.119 0.103-0.204 0.123s-0.176 0.017-0.271-0.010c-0.096-0.028-0.188-0.077-0.274-0.148-0.132-0.108-0.21-0.228-0.234-0.359s0.012-0.257 0.108-0.379l0.418-0.509c0.083-0.101 0.136-0.194 0.157-0.278l0.015-0.018 0.259 0.212zM25.444 5.066c-0.050-0.041-0.107-0.067-0.171-0.079s-0.125-0.007-0.181 0.016l-0.175 0.213 0.137 0.112c0.094 0.077 0.178 0.119 0.252 0.125s0.136-0.021 0.185-0.080c0.040-0.049 0.056-0.101 0.048-0.156-0.009-0.055-0.041-0.105-0.095-0.15z"></path>
<path fill="#8a8a8a" style="fill: var(--color2, #8a8a8a)" d="M23.961 3.668l0.276 0.177-1.119 1.744-0.276-0.177 1.119-1.744z"></path>
<path fill="#8a8a8a" style="fill: var(--color2, #8a8a8a)" d="M21.244 2.716c-0.022 0.054-0.015 0.105 0.018 0.151s0.097 0.1 0.192 0.163 0.171 0.125 0.227 0.186c0.123 0.134 0.157 0.271 0.101 0.41-0.046 0.117-0.135 0.195-0.264 0.235s-0.271 0.029-0.423-0.031c-0.162-0.064-0.277-0.156-0.345-0.276s-0.077-0.244-0.027-0.372l0.305 0.121c-0.023 0.059-0.021 0.116 0.008 0.171s0.078 0.099 0.15 0.128c0.067 0.027 0.128 0.033 0.183 0.019s0.091-0.047 0.112-0.099c0.019-0.047 0.013-0.091-0.016-0.132s-0.098-0.099-0.207-0.174c-0.109-0.073-0.19-0.142-0.244-0.206-0.054-0.063-0.088-0.127-0.1-0.191s-0.005-0.133 0.023-0.206c0.048-0.122 0.138-0.201 0.27-0.237s0.278-0.020 0.442 0.045c0.111 0.044 0.202 0.103 0.273 0.178s0.117 0.157 0.137 0.246c0.021 0.089 0.015 0.175-0.017 0.256l-0.296-0.117c0.024-0.074 0.019-0.14-0.015-0.199s-0.094-0.104-0.177-0.137c-0.080-0.032-0.147-0.041-0.201-0.027s-0.091 0.046-0.11 0.095z"></path>
<path fill="#8a8a8a" style="fill: var(--color2, #8a8a8a)" d="M19.556 3.093c-0.132 0.097-0.278 0.127-0.438 0.090-0.303-0.070-0.417-0.279-0.342-0.626l0.214-0.929 0.319 0.074-0.212 0.918c-0.023 0.098-0.017 0.172 0.017 0.223 0.033 0.051 0.090 0.086 0.172 0.105 0.128 0.030 0.237-0.005 0.326-0.105l0.234-1.016 0.319 0.074-0.466 2.019-0.319-0.074 0.173-0.752z"></path>
<path fill="#8a8a8a" style="fill: var(--color2, #8a8a8a)" d="M17.931 2.171c-0.010 0.143-0.047 0.269-0.112 0.379s-0.15 0.193-0.257 0.247c-0.107 0.055-0.226 0.078-0.359 0.068-0.197-0.014-0.351-0.088-0.465-0.223s-0.169-0.307-0.164-0.517l0.004-0.077c0.010-0.144 0.047-0.27 0.11-0.379s0.148-0.191 0.255-0.246c0.107-0.055 0.227-0.078 0.362-0.068 0.206 0.014 0.365 0.094 0.48 0.239s0.162 0.333 0.146 0.561l-0.001 0.016zM17.606 2.12c0.010-0.15-0.012-0.27-0.068-0.359s-0.139-0.137-0.25-0.145-0.199 0.029-0.266 0.111c-0.068 0.082-0.108 0.206-0.119 0.372-0.010 0.147 0.014 0.266 0.071 0.357s0.14 0.14 0.248 0.147c0.107 0.007 0.195-0.029 0.263-0.11s0.109-0.204 0.121-0.373z"></path>
<path fill="#8a8a8a" style="fill: var(--color2, #8a8a8a)" d="M14.277 1.883l-0.114 1.028-0.318 0.037 0.227-1.496 0.268-0.031 0.427 0.96 0.19-1.031 0.268-0.031 0.565 1.404-0.318 0.037-0.35-0.963-0.182 1.025-0.245 0.029-0.418-0.966z"></path>
<path fill="#8a8a8a" style="fill: var(--color2, #8a8a8a)" d="M11.747 2.695c0.083 0.209 0.101 0.396 0.054 0.561s-0.151 0.281-0.314 0.345c-0.144 0.057-0.28 0.053-0.408-0.012l0.276 0.695-0.305 0.121-0.764-1.926 0.276-0.109 0.071 0.135c0.047-0.147 0.147-0.25 0.299-0.31 0.159-0.063 0.313-0.050 0.462 0.039s0.266 0.244 0.354 0.463zM11.432 2.79c-0.055-0.138-0.124-0.235-0.207-0.292-0.084-0.056-0.175-0.064-0.273-0.025-0.125 0.049-0.194 0.141-0.207 0.275l0.23 0.579c0.099 0.086 0.211 0.105 0.336 0.056 0.099-0.039 0.159-0.109 0.181-0.208s0.003-0.227-0.060-0.384z"></path>
<path fill="#8a8a8a" style="fill: var(--color2, #8a8a8a)" d="M9.039 3.080l0.288-0.156 0.696 1.283-0.288 0.156-0.696-1.283zM10.222 4.531c0.024 0.044 0.030 0.089 0.018 0.133s-0.045 0.081-0.097 0.109-0.1 0.036-0.145 0.022c-0.044-0.014-0.079-0.043-0.102-0.087s-0.029-0.088-0.016-0.132c0.013-0.044 0.046-0.080 0.098-0.108s0.1-0.036 0.144-0.023c0.044 0.014 0.077 0.043 0.101 0.087z"></path>
<path fill="#8a8a8a" style="fill: var(--color2, #8a8a8a)" d="M8.731 4.071c0.131 0.185 0.193 0.363 0.184 0.534-0.009 0.173-0.085 0.31-0.228 0.412-0.136 0.096-0.276 0.125-0.421 0.086l0.073 0.128-0.241 0.171-0.82-1.154c-0.111-0.156-0.15-0.314-0.116-0.473s0.131-0.297 0.296-0.414c0.087-0.062 0.186-0.104 0.295-0.127 0.108-0.023 0.205-0.020 0.29 0.007l-0.012 0.25c-0.151-0.039-0.287-0.016-0.407 0.069-0.089 0.063-0.142 0.137-0.158 0.222s0.007 0.173 0.073 0.266l0.057 0.080c0.016-0.14 0.088-0.256 0.216-0.348 0.139-0.099 0.293-0.125 0.46-0.077s0.32 0.17 0.459 0.366zM8.448 4.237c-0.085-0.12-0.176-0.197-0.273-0.231-0.098-0.033-0.19-0.019-0.276 0.042-0.108 0.077-0.155 0.18-0.141 0.309l0.372 0.523c0.115 0.054 0.226 0.043 0.334-0.034 0.088-0.063 0.132-0.146 0.131-0.251s-0.050-0.224-0.146-0.359z"></path>
<path fill="#8a8a8a" style="fill: var(--color2, #8a8a8a)" d="M6.151 5.121l0.242-0.221 0.982 1.080-0.242 0.221-0.982-1.080zM7.646 6.247c0.034 0.037 0.050 0.079 0.050 0.125s-0.024 0.090-0.068 0.13-0.089 0.059-0.135 0.056c-0.046-0.003-0.086-0.023-0.12-0.060s-0.049-0.078-0.048-0.125c0.002-0.046 0.025-0.089 0.069-0.129s0.089-0.059 0.134-0.057c0.046 0.003 0.085 0.023 0.118 0.060z"></path>
<path fill="#8a8a8a" style="fill: var(--color2, #8a8a8a)" d="M5.285 6.315c-0.054 0.062-0.081 0.128-0.081 0.2s0.026 0.133 0.076 0.181l-0.204 0.232c-0.066-0.063-0.111-0.14-0.136-0.232s-0.023-0.187 0.002-0.285 0.073-0.187 0.142-0.266c0.135-0.154 0.291-0.232 0.469-0.234s0.355 0.073 0.53 0.226l0.025 0.022c0.167 0.146 0.261 0.308 0.283 0.485s-0.034 0.344-0.169 0.498c-0.114 0.13-0.246 0.203-0.394 0.218-0.148 0.016-0.286-0.028-0.413-0.133l0.204-0.232c0.065 0.052 0.136 0.076 0.212 0.071s0.141-0.038 0.195-0.1c0.070-0.080 0.095-0.167 0.075-0.261s-0.088-0.192-0.205-0.296l-0.040-0.035c-0.119-0.104-0.227-0.161-0.323-0.17-0.096-0.008-0.18 0.029-0.251 0.11z"></path>
<path fill="#8a8a8a" style="fill: var(--color2, #8a8a8a)" d="M3.94 7.631l0.187-0.269 1.199 0.833-0.187 0.269-1.199-0.833zM5.649 8.394c0.041 0.029 0.067 0.066 0.076 0.11s-0.004 0.093-0.037 0.142-0.074 0.077-0.12 0.085c-0.046 0.008-0.089-0.003-0.131-0.032s-0.065-0.065-0.074-0.111c-0.008-0.045 0.005-0.092 0.039-0.141s0.073-0.077 0.118-0.085c0.045-0.007 0.088 0.004 0.129 0.032z"></path>
<path fill="#8a8a8a" style="fill: var(--color2, #8a8a8a)" d="M4.838 9.598l-0.309-0.175-0.127 0.224-0.211-0.12 0.127-0.224-0.709-0.401c-0.049-0.027-0.089-0.038-0.122-0.032-0.032 0.008-0.062 0.036-0.090 0.085-0.019 0.033-0.034 0.068-0.045 0.106l-0.221-0.125c0.019-0.075 0.045-0.143 0.079-0.203 0.124-0.219 0.307-0.26 0.549-0.123l0.72 0.407 0.118-0.209 0.211 0.12-0.118 0.209 0.309 0.175-0.162 0.285z"></path>
<path fill="#8a8a8a" style="fill: var(--color2, #8a8a8a)" d="M2.398 10.463c0.031-0.003 0.078 0.003 0.14 0.017-0.061-0.138-0.063-0.277-0.006-0.416 0.056-0.136 0.14-0.23 0.252-0.284s0.226-0.058 0.34-0.011c0.144 0.059 0.232 0.157 0.265 0.295 0.033 0.139 0.009 0.308-0.072 0.507l-0.076 0.186 0.089 0.036c0.070 0.029 0.134 0.032 0.191 0.010s0.104-0.073 0.137-0.152c0.028-0.069 0.034-0.133 0.017-0.191s-0.051-0.098-0.104-0.12l0.124-0.303c0.074 0.030 0.133 0.083 0.177 0.159s0.068 0.163 0.070 0.262c0.002 0.1-0.019 0.202-0.061 0.306-0.065 0.158-0.156 0.268-0.275 0.329s-0.249 0.064-0.394 0.008l-0.609-0.25c-0.122-0.050-0.225-0.072-0.312-0.068l-0.021-0.009 0.127-0.31zM2.753 10.22c-0.025 0.060-0.033 0.122-0.025 0.186s0.030 0.121 0.068 0.168l0.255 0.104 0.067-0.164c0.046-0.112 0.061-0.205 0.045-0.277s-0.060-0.124-0.131-0.153c-0.058-0.024-0.113-0.024-0.163 0-0.050 0.025-0.089 0.070-0.115 0.135z"></path>
<path fill="#8a8a8a" style="fill: var(--color2, #8a8a8a)" d="M1.847 12.072l0.087-0.316 1.998 0.55-0.087 0.316-1.998-0.55z"></path>
<path fill="#8a8a8a" style="fill: var(--color2, #8a8a8a)" d="M1.747 14.953c0.058 0.004 0.105-0.017 0.139-0.063s0.067-0.123 0.098-0.232 0.068-0.2 0.109-0.272c0.091-0.157 0.211-0.231 0.361-0.22 0.126 0.009 0.227 0.070 0.303 0.182s0.109 0.25 0.097 0.413c-0.013 0.174-0.066 0.311-0.16 0.412s-0.21 0.147-0.347 0.137l0.024-0.327c0.063 0.005 0.117-0.015 0.161-0.059s0.071-0.104 0.077-0.181c0.005-0.072-0.007-0.132-0.037-0.18s-0.073-0.073-0.128-0.077c-0.050-0.004-0.091 0.015-0.122 0.055s-0.065 0.123-0.104 0.249c-0.037 0.126-0.078 0.224-0.123 0.294s-0.095 0.122-0.152 0.153c-0.057 0.032-0.125 0.045-0.203 0.039-0.131-0.010-0.233-0.072-0.307-0.186s-0.103-0.26-0.090-0.435c0.009-0.119 0.038-0.224 0.088-0.314s0.114-0.158 0.194-0.205c0.079-0.046 0.162-0.067 0.249-0.060l-0.023 0.318c-0.077-0.001-0.139 0.024-0.185 0.074s-0.071 0.121-0.078 0.209c-0.006 0.086 0.005 0.153 0.034 0.2s0.071 0.073 0.124 0.077z"></path>
<path fill="#8a8a8a" style="fill: var(--color2, #8a8a8a)" d="M2.607 16.485c0.132 0.097 0.204 0.227 0.217 0.391 0.024 0.31-0.141 0.481-0.495 0.513l-0.951 0.074-0.025-0.327 0.939-0.073c0.1-0.008 0.17-0.035 0.207-0.082s0.055-0.112 0.048-0.196c-0.010-0.131-0.076-0.224-0.198-0.28l-1.040 0.080-0.025-0.327 2.066-0.16 0.025 0.327-0.769 0.059z"></path>
<path fill="#8a8a8a" style="fill: var(--color2, #8a8a8a)" d="M2.202 18.296c0.139-0.033 0.271-0.035 0.395-0.007s0.229 0.085 0.313 0.171c0.084 0.085 0.142 0.193 0.173 0.322 0.046 0.192 0.021 0.362-0.074 0.51s-0.243 0.253-0.444 0.311l-0.075 0.019c-0.14 0.033-0.272 0.036-0.395 0.008s-0.227-0.084-0.311-0.17c-0.084-0.085-0.142-0.194-0.173-0.325-0.048-0.2-0.020-0.377 0.085-0.529 0.105-0.152 0.269-0.254 0.491-0.307l0.016-0.004zM2.251 18.622c-0.146 0.035-0.254 0.092-0.322 0.173s-0.089 0.174-0.063 0.281 0.088 0.181 0.186 0.221c0.098 0.040 0.229 0.041 0.39 0.003 0.143-0.034 0.25-0.092 0.319-0.175s0.091-0.175 0.066-0.281c-0.025-0.104-0.086-0.177-0.184-0.218s-0.228-0.043-0.392-0.004z"></path>
<path fill="#8a8a8a" style="fill: var(--color2, #8a8a8a)" d="M3.009 21.856l1.015-0.198 0.13 0.292-1.495 0.23-0.11-0.247 0.789-0.694-1.041 0.127-0.11-0.247 1.171-0.959 0.13 0.292-0.815 0.621 1.033-0.132 0.1 0.226-0.797 0.687z"></path>
<path fill="#8a8a8a" style="fill: var(--color2, #8a8a8a)" d="M4.493 23.971c0.175-0.141 0.349-0.213 0.52-0.217s0.313 0.062 0.423 0.199c0.097 0.121 0.133 0.252 0.109 0.394l0.583-0.468 0.205 0.256-1.616 1.297-0.186-0.231 0.108-0.107c-0.154-0.002-0.282-0.067-0.385-0.195-0.107-0.133-0.14-0.284-0.099-0.453s0.154-0.326 0.339-0.474zM4.676 24.244c-0.116 0.093-0.189 0.188-0.218 0.284-0.029 0.097-0.010 0.186 0.056 0.268 0.084 0.105 0.192 0.144 0.324 0.117l0.486-0.39c0.053-0.12 0.038-0.233-0.046-0.337-0.066-0.083-0.151-0.12-0.253-0.112s-0.218 0.064-0.35 0.17z"></path>
<path fill="#8a8a8a" style="fill: var(--color2, #8a8a8a)" d="M5.686 26.482l-0.234-0.229 1.021-1.043 0.234 0.229-1.021 1.043zM6.723 24.924c0.035-0.036 0.076-0.055 0.122-0.057s0.091 0.019 0.133 0.061 0.064 0.085 0.063 0.132c-0 0.046-0.018 0.088-0.053 0.124s-0.075 0.054-0.122 0.055c-0.046 0-0.090-0.020-0.132-0.062s-0.064-0.085-0.064-0.131c0.001-0.046 0.018-0.086 0.053-0.122z"></path>
<path fill="#8a8a8a" style="fill: var(--color2, #8a8a8a)" d="M6.722 26.486c0.138-0.18 0.29-0.291 0.456-0.333 0.168-0.043 0.321-0.010 0.461 0.097 0.132 0.101 0.201 0.227 0.206 0.377l0.101-0.108 0.234 0.18-0.862 1.123c-0.117 0.152-0.256 0.235-0.418 0.25s-0.323-0.038-0.483-0.162c-0.085-0.065-0.154-0.147-0.208-0.245-0.054-0.097-0.080-0.19-0.078-0.279l0.243-0.062c0.007 0.156 0.069 0.279 0.186 0.369 0.086 0.066 0.173 0.095 0.259 0.086s0.163-0.057 0.233-0.148l0.060-0.078c-0.139 0.026-0.271-0.009-0.396-0.105-0.136-0.104-0.205-0.243-0.209-0.417s0.069-0.355 0.215-0.546zM6.964 26.708c-0.089 0.116-0.136 0.226-0.14 0.329-0.003 0.103 0.037 0.187 0.122 0.251 0.105 0.081 0.217 0.095 0.337 0.044l0.391-0.509c0.018-0.126-0.025-0.229-0.13-0.309-0.086-0.066-0.178-0.083-0.278-0.052s-0.199 0.113-0.301 0.245z"></path>
<path fill="#8a8a8a" style="fill: var(--color2, #8a8a8a)" d="M8.493 28.651l-0.282-0.167 0.742-1.257 0.282 0.167-0.742 1.257zM9.128 26.891c0.026-0.044 0.060-0.071 0.104-0.084s0.093-0.003 0.144 0.027 0.082 0.068 0.093 0.113c0.011 0.045 0.004 0.089-0.022 0.133-0.025 0.043-0.060 0.070-0.105 0.082-0.044 0.011-0.092 0.002-0.143-0.028s-0.082-0.068-0.094-0.112c-0.010-0.045-0.003-0.088 0.022-0.131z"></path>
<path fill="#8a8a8a" style="fill: var(--color2, #8a8a8a)" d="M9.887 29.127c0.075 0.033 0.146 0.039 0.215 0.017s0.119-0.064 0.151-0.126l0.282 0.126c-0.040 0.082-0.101 0.148-0.181 0.198s-0.171 0.077-0.273 0.082c-0.102 0.005-0.201-0.014-0.297-0.057-0.187-0.083-0.308-0.209-0.363-0.379s-0.036-0.361 0.059-0.573l0.014-0.031c0.090-0.203 0.217-0.341 0.379-0.414 0.163-0.074 0.338-0.070 0.525 0.014 0.159 0.071 0.267 0.174 0.325 0.312 0.059 0.137 0.058 0.281-0.004 0.434l-0.282-0.126c0.031-0.078 0.032-0.153 0.005-0.224s-0.078-0.123-0.153-0.157c-0.097-0.043-0.187-0.041-0.271 0.006s-0.158 0.141-0.222 0.284l-0.021 0.048c-0.064 0.145-0.087 0.264-0.067 0.359 0.021 0.094 0.081 0.163 0.18 0.207z"></path>
<path fill="#8a8a8a" style="fill: var(--color2, #8a8a8a)" d="M11.572 30.033l-0.313-0.098 0.435-1.393 0.313 0.098-0.435 1.394zM11.787 28.174c0.015-0.048 0.043-0.083 0.082-0.106s0.090-0.024 0.146-0.007 0.095 0.047 0.116 0.089c0.021 0.041 0.024 0.086 0.009 0.134s-0.043 0.082-0.083 0.104c-0.041 0.021-0.089 0.023-0.146 0.005s-0.096-0.047-0.117-0.088c-0.020-0.041-0.023-0.085-0.008-0.132z"></path>
<path fill="#8a8a8a" style="fill: var(--color2, #8a8a8a)" d="M13.153 28.583l-0.074 0.347 0.252 0.054-0.051 0.237-0.252-0.054-0.171 0.797c-0.012 0.055-0.010 0.096 0.006 0.126 0.017 0.028 0.053 0.049 0.108 0.060 0.037 0.008 0.075 0.012 0.115 0.011l-0.053 0.248c-0.077 0.005-0.15-0-0.218-0.015-0.246-0.053-0.34-0.215-0.282-0.487l0.174-0.809-0.235-0.050 0.051-0.237 0.235 0.050 0.074-0.347 0.321 0.069z"></path>
<path fill="#8a8a8a" style="fill: var(--color2, #8a8a8a)" d="M14.716 30.658c-0.012-0.029-0.021-0.075-0.026-0.139-0.113 0.1-0.245 0.143-0.396 0.13-0.146-0.013-0.262-0.064-0.347-0.155s-0.123-0.198-0.112-0.321c0.013-0.155 0.081-0.269 0.202-0.342s0.291-0.101 0.505-0.083l0.2 0.017 0.008-0.096c0.006-0.075-0.010-0.137-0.048-0.185-0.038-0.049-0.1-0.078-0.186-0.085-0.074-0.006-0.137 0.007-0.188 0.041-0.051 0.032-0.078 0.078-0.083 0.135l-0.327-0.028c0.007-0.080 0.040-0.152 0.098-0.217s0.135-0.114 0.229-0.146c0.095-0.032 0.198-0.043 0.31-0.033 0.17 0.014 0.302 0.069 0.396 0.164 0.094 0.094 0.136 0.218 0.125 0.373l-0.056 0.656c-0.011 0.131-0.002 0.237 0.028 0.318l-0.002 0.023-0.333-0.028zM14.377 30.392c0.065 0.005 0.126-0.005 0.185-0.032s0.107-0.065 0.14-0.115l0.023-0.274-0.176-0.015c-0.121-0.010-0.214 0.003-0.278 0.040s-0.1 0.094-0.107 0.171c-0.005 0.063 0.011 0.115 0.049 0.156 0.039 0.040 0.093 0.064 0.163 0.069z"></path>
<path fill="#8a8a8a" style="fill: var(--color2, #8a8a8a)" d="M16.465 30.706l-0.328 0.011-0.072-2.071 0.328-0.011 0.072 2.071z"></path>
<path fill="#8a8a8a" style="fill: var(--color2, #8a8a8a)" d="M19.18 29.962c-0.013-0.057-0.047-0.095-0.101-0.114s-0.137-0.028-0.251-0.025-0.211-0.006-0.292-0.024c-0.177-0.040-0.283-0.134-0.317-0.28-0.028-0.123-0-0.237 0.084-0.343s0.206-0.178 0.366-0.215c0.17-0.039 0.317-0.029 0.441 0.031s0.202 0.157 0.233 0.291l-0.32 0.074c-0.014-0.061-0.049-0.107-0.104-0.137s-0.12-0.037-0.196-0.020c-0.070 0.016-0.124 0.046-0.161 0.088s-0.048 0.091-0.036 0.145c0.011 0.049 0.041 0.082 0.088 0.1s0.137 0.026 0.269 0.025c0.132-0.002 0.237 0.008 0.317 0.031 0.081 0.021 0.144 0.055 0.191 0.1s0.080 0.106 0.097 0.182c0.030 0.128 0 0.244-0.087 0.348-0.088 0.103-0.218 0.175-0.389 0.214-0.117 0.027-0.225 0.030-0.326 0.009s-0.185-0.063-0.253-0.125c-0.068-0.062-0.111-0.135-0.131-0.22l0.31-0.072c0.022 0.075 0.064 0.126 0.126 0.155s0.136 0.032 0.223 0.012c0.084-0.019 0.145-0.050 0.181-0.092s0.049-0.090 0.037-0.141z"></path>
<path fill="#8a8a8a" style="fill: var(--color2, #8a8a8a)" d="M20.363 28.703c0.054-0.155 0.157-0.262 0.309-0.323 0.289-0.115 0.502-0.008 0.637 0.321l0.352 0.887-0.305 0.121-0.347-0.875c-0.037-0.094-0.084-0.152-0.14-0.174-0.056-0.023-0.123-0.019-0.201 0.012-0.122 0.048-0.192 0.139-0.209 0.271l0.385 0.969-0.305 0.121-0.764-1.926 0.305-0.121 0.285 0.717z"></path>
<path fill="#8a8a8a" style="fill: var(--color2, #8a8a8a)" d="M22.262 28.532c-0.073-0.123-0.115-0.248-0.124-0.375s0.013-0.244 0.070-0.349c0.056-0.106 0.142-0.193 0.256-0.261 0.169-0.101 0.339-0.128 0.509-0.082s0.314 0.156 0.43 0.331l0.041 0.066c0.074 0.124 0.116 0.248 0.126 0.374s-0.012 0.241-0.069 0.347c-0.056 0.106-0.142 0.193-0.258 0.262-0.177 0.105-0.354 0.131-0.53 0.077-0.176-0.055-0.323-0.181-0.44-0.377l-0.008-0.014zM22.558 28.389c0.077 0.129 0.164 0.214 0.261 0.256 0.097 0.041 0.192 0.033 0.287-0.024s0.147-0.138 0.155-0.243c0.009-0.106-0.029-0.23-0.114-0.373-0.076-0.127-0.163-0.211-0.262-0.252s-0.194-0.035-0.288 0.020c-0.092 0.055-0.143 0.135-0.153 0.241s0.027 0.23 0.114 0.375z"></path>
<path fill="#8a8a8a" style="fill: var(--color2, #8a8a8a)" d="M25.368 26.75l-0.487-0.913 0.241-0.21 0.658 1.362-0.204 0.177-0.894-0.551 0.426 0.958-0.204 0.177-1.26-0.839 0.241-0.21 0.833 0.597-0.429-0.949 0.186-0.162 0.891 0.561z"></path>
<path fill="#8a8a8a" style="fill: var(--color2, #8a8a8a)" d="M27.046 24.604c-0.187-0.126-0.307-0.27-0.361-0.432-0.055-0.163-0.034-0.317 0.064-0.463 0.086-0.128 0.201-0.202 0.344-0.221l-0.62-0.417 0.183-0.272 1.719 1.157-0.166 0.246-0.134-0.071c0.044 0.148 0.020 0.289-0.071 0.425-0.096 0.142-0.23 0.218-0.403 0.23s-0.358-0.050-0.554-0.182zM27.252 24.348c0.123 0.083 0.235 0.124 0.336 0.124 0.101-0.002 0.18-0.046 0.239-0.133 0.075-0.111 0.080-0.226 0.015-0.344l-0.517-0.348c-0.131-0.015-0.233 0.033-0.308 0.144-0.059 0.088-0.070 0.18-0.032 0.274s0.126 0.189 0.266 0.283z"></path>
<path fill="#8a8a8a" style="fill: var(--color2, #8a8a8a)" d="M29.056 22.773l-0.15 0.292-1.299-0.667 0.15-0.292 1.299 0.667zM27.261 22.243c-0.045-0.023-0.075-0.056-0.090-0.099s-0.009-0.092 0.018-0.145 0.063-0.086 0.107-0.1c0.045-0.014 0.089-0.009 0.134 0.014s0.073 0.056 0.088 0.1c0.014 0.044 0.007 0.092-0.020 0.145s-0.062 0.086-0.106 0.1c-0.044 0.013-0.088 0.008-0.132-0.015z"></path>
<path fill="#8a8a8a" style="fill: var(--color2, #8a8a8a)" d="M28.739 21.815c-0.212-0.079-0.364-0.191-0.453-0.338-0.090-0.148-0.104-0.304-0.043-0.469 0.058-0.156 0.158-0.259 0.3-0.308l-0.133-0.065 0.103-0.277 1.327 0.492c0.18 0.067 0.301 0.175 0.363 0.326s0.058 0.32-0.012 0.509c-0.037 0.1-0.095 0.191-0.173 0.271-0.077 0.080-0.158 0.132-0.244 0.157l-0.131-0.214c0.147-0.053 0.246-0.148 0.298-0.287 0.038-0.102 0.040-0.193 0.006-0.273s-0.103-0.139-0.21-0.179l-0.092-0.034c0.066 0.125 0.071 0.262 0.017 0.409-0.059 0.16-0.172 0.268-0.337 0.323s-0.36 0.039-0.585-0.044zM28.879 21.519c0.137 0.051 0.256 0.063 0.356 0.037 0.099-0.027 0.167-0.091 0.205-0.19 0.046-0.124 0.027-0.236-0.057-0.335l-0.602-0.223c-0.125 0.020-0.211 0.092-0.257 0.216-0.038 0.101-0.027 0.195 0.032 0.281s0.167 0.157 0.323 0.215z"></path>
<path fill="#8a8a8a" style="fill: var(--color2, #8a8a8a)" d="M30.281 19.5l-0.076 0.319-1.42-0.339 0.076-0.319 1.42 0.339zM28.412 19.412c-0.049-0.012-0.086-0.037-0.111-0.075s-0.030-0.088-0.017-0.145 0.040-0.099 0.080-0.122c0.040-0.024 0.084-0.030 0.133-0.018s0.084 0.037 0.11 0.076c0.024 0.039 0.029 0.087 0.015 0.145s-0.040 0.099-0.079 0.123c-0.040 0.023-0.083 0.029-0.132 0.017z"></path>
<path fill="#8a8a8a" style="fill: var(--color2, #8a8a8a)" d="M30.335 17.957c0.009-0.081-0.006-0.151-0.048-0.211s-0.096-0.095-0.166-0.106l0.036-0.307c0.090 0.014 0.171 0.052 0.244 0.114 0.071 0.062 0.125 0.14 0.16 0.236s0.047 0.196 0.034 0.3c-0.024 0.203-0.108 0.356-0.253 0.46s-0.334 0.142-0.565 0.115l-0.034-0.004c-0.221-0.026-0.39-0.105-0.509-0.238-0.12-0.133-0.167-0.302-0.144-0.506 0.020-0.172 0.087-0.307 0.2-0.403s0.251-0.139 0.415-0.126l-0.036 0.307c-0.083-0.006-0.155 0.015-0.215 0.062s-0.094 0.111-0.104 0.193c-0.012 0.105 0.017 0.191 0.087 0.257s0.181 0.108 0.337 0.127l0.052 0.006c0.157 0.018 0.278 0.004 0.363-0.044s0.131-0.126 0.144-0.233z"></path>
</symbol>
<symbol id="other-proj" viewBox="0 0 32 32">
<path fill="#8a8a8a" style="fill: var(--color1, #8a8a8a)" d="M31.647 15.822l-1.663 0.071-0.029-0.693c-0.003-0.073 0.010-0.141 0.038-0.203 0.027-0.062 0.065-0.117 0.115-0.164 0.048-0.047 0.104-0.085 0.167-0.113 0.061-0.028 0.125-0.043 0.191-0.046 0.091-0.004 0.178 0.013 0.263 0.050 0.083 0.037 0.152 0.091 0.206 0.163 0.053 0.071 0.082 0.156 0.086 0.255l0.021 0.497 0.597-0.025 0.009 0.211zM30.853 15.644l-0.021-0.485c-0.002-0.058-0.020-0.107-0.053-0.148-0.033-0.042-0.077-0.074-0.131-0.095-0.054-0.023-0.112-0.033-0.175-0.030-0.066 0.003-0.124 0.019-0.174 0.050-0.052 0.030-0.092 0.069-0.119 0.115s-0.041 0.097-0.038 0.152l0.020 0.471 0.691-0.029z"></path>
<path fill="#8a8a8a" style="fill: var(--color1, #8a8a8a)" d="M31.559 14.306l-1.648 0.236-0.101-0.706c-0.010-0.073-0.005-0.142 0.018-0.206 0.021-0.065 0.053-0.123 0.098-0.175 0.043-0.052 0.095-0.095 0.154-0.129 0.058-0.034 0.12-0.055 0.185-0.064 0.076-0.011 0.15-0.007 0.222 0.013 0.072 0.018 0.136 0.050 0.191 0.096 0.055 0.044 0.097 0.1 0.126 0.167l0.574-0.49 0.034 0.237-0.538 0.461 0.063 0.436 0.592-0.085 0.030 0.209zM30.751 14.209l-0.072-0.499c-0.008-0.057-0.031-0.105-0.068-0.142-0.039-0.039-0.086-0.066-0.142-0.081-0.056-0.017-0.114-0.021-0.175-0.013-0.062 0.009-0.116 0.031-0.163 0.066-0.049 0.035-0.085 0.078-0.11 0.127s-0.033 0.101-0.025 0.155l0.070 0.485 0.685-0.098z"></path>
<path fill="#8a8a8a" style="fill: var(--color1, #8a8a8a)" d="M31.162 12.102c0.029 0.114 0.032 0.222 0.011 0.326s-0.063 0.2-0.123 0.288c-0.062 0.087-0.137 0.161-0.224 0.222-0.089 0.061-0.185 0.105-0.288 0.132-0.108 0.027-0.215 0.035-0.321 0.021-0.108-0.014-0.209-0.046-0.302-0.095-0.095-0.050-0.176-0.116-0.244-0.197-0.069-0.081-0.117-0.176-0.145-0.285-0.029-0.114-0.032-0.223-0.008-0.327s0.066-0.2 0.128-0.287c0.062-0.087 0.137-0.161 0.224-0.222s0.182-0.105 0.284-0.13c0.108-0.027 0.215-0.035 0.323-0.022 0.107 0.013 0.207 0.045 0.302 0.095 0.093 0.049 0.173 0.114 0.241 0.195s0.115 0.176 0.143 0.285zM30.485 12.863c0.082-0.021 0.158-0.054 0.229-0.099 0.069-0.047 0.127-0.102 0.173-0.165s0.079-0.134 0.096-0.211c0.017-0.077 0.016-0.157-0.006-0.241-0.022-0.086-0.060-0.159-0.114-0.218s-0.117-0.104-0.189-0.136c-0.073-0.033-0.15-0.052-0.232-0.057-0.082-0.006-0.162 0-0.239 0.020-0.082 0.021-0.157 0.055-0.226 0.101-0.069 0.045-0.127 0.1-0.173 0.165-0.048 0.064-0.080 0.134-0.096 0.211-0.018 0.076-0.016 0.154 0.004 0.236 0.022 0.086 0.060 0.159 0.114 0.218 0.052 0.059 0.115 0.105 0.188 0.139 0.073 0.031 0.15 0.050 0.232 0.057 0.081 0.007 0.161 0 0.239-0.020z"></path>
<path fill="#8a8a8a" style="fill: var(--color1, #8a8a8a)" d="M30.645 11.226c0.009-0.035 0.014-0.080 0.014-0.135-0.002-0.056-0.015-0.118-0.040-0.185-0.034-0.093-0.079-0.155-0.135-0.188-0.059-0.034-0.133-0.043-0.223-0.029-0.090 0.013-0.201 0.043-0.334 0.091l-0.84 0.304-0.072-0.198 0.796-0.288c0.116-0.042 0.225-0.075 0.326-0.098s0.194-0.030 0.279-0.021c0.083 0.010 0.157 0.043 0.221 0.1 0.063 0.055 0.116 0.141 0.158 0.257 0.027 0.073 0.042 0.141 0.046 0.203s-0.002 0.122-0.017 0.181l-0.179 0.008z"></path>
<path fill="#8a8a8a" style="fill: var(--color1, #8a8a8a)" d="M29.753 8.924l0.17-0.079 0.479 1.024-1.508 0.705-0.47-1.005 0.17-0.079 0.38 0.814 0.488-0.229-0.331-0.707 0.159-0.075 0.331 0.707 0.52-0.243-0.389-0.833z"></path>
<path fill="#8a8a8a" style="fill: var(--color1, #8a8a8a)" d="M29.046 8.98c-0.087 0.052-0.181 0.089-0.282 0.109-0.103 0.020-0.206 0.022-0.309 0.005-0.105-0.017-0.203-0.056-0.294-0.116-0.092-0.059-0.171-0.143-0.235-0.25-0.076-0.127-0.113-0.254-0.108-0.381 0.003-0.126 0.037-0.238 0.101-0.337l0.178 0.087c-0.043 0.064-0.069 0.129-0.078 0.194-0.010 0.065-0.008 0.127 0.008 0.187 0.015 0.058 0.037 0.112 0.066 0.16 0.047 0.079 0.106 0.14 0.175 0.182 0.068 0.041 0.142 0.066 0.22 0.075s0.158 0.005 0.238-0.014c0.078-0.019 0.15-0.049 0.217-0.089 0.074-0.044 0.137-0.099 0.191-0.164 0.053-0.066 0.092-0.138 0.118-0.213s0.036-0.153 0.030-0.232c-0.005-0.079-0.029-0.154-0.072-0.225-0.030-0.050-0.069-0.095-0.118-0.137s-0.105-0.075-0.169-0.098c-0.065-0.023-0.135-0.030-0.21-0.022l-0.008-0.2c0.089-0.013 0.176-0.004 0.263 0.028s0.166 0.078 0.237 0.139c0.071 0.060 0.128 0.126 0.172 0.2 0.059 0.098 0.092 0.2 0.099 0.307 0.006 0.108-0.007 0.212-0.041 0.315-0.036 0.102-0.087 0.195-0.154 0.281-0.069 0.085-0.149 0.155-0.238 0.209z"></path>
<path fill="#8a8a8a" style="fill: var(--color1, #8a8a8a)" d="M26.909 6.939l0.345 0.46 1.182-0.886 0.127 0.169-1.182 0.886 0.345 0.46-0.15 0.113-0.816-1.088 0.15-0.113z"></path>
<path fill="#8a8a8a" style="fill: var(--color1, #8a8a8a)" d="M26.29 6.022c-0.006 0.058 0.005 0.13 0.033 0.214s0.076 0.163 0.143 0.237c0.086 0.095 0.168 0.149 0.245 0.161s0.146-0.010 0.209-0.066c0.044-0.040 0.068-0.083 0.073-0.129s-0.007-0.101-0.034-0.163c-0.028-0.063-0.067-0.14-0.117-0.23-0.059-0.102-0.104-0.197-0.134-0.284s-0.038-0.167-0.023-0.242c0.013-0.074 0.057-0.144 0.131-0.211 0.079-0.072 0.161-0.111 0.248-0.118s0.173 0.013 0.259 0.059c0.085 0.045 0.166 0.11 0.243 0.194 0.175 0.192 0.269 0.412 0.282 0.659l-0.2 0.045c0.002-0.049-0.003-0.106-0.017-0.172-0.015-0.067-0.038-0.136-0.072-0.208-0.035-0.071-0.081-0.138-0.138-0.201-0.080-0.088-0.158-0.142-0.233-0.162-0.077-0.019-0.145-0.001-0.207 0.055-0.046 0.042-0.071 0.090-0.073 0.143-0.004 0.052 0.010 0.113 0.039 0.183s0.070 0.152 0.121 0.245c0.055 0.102 0.096 0.193 0.123 0.271 0.026 0.080 0.032 0.153 0.018 0.218-0.015 0.065-0.055 0.126-0.12 0.185-0.079 0.072-0.162 0.113-0.252 0.124s-0.178-0.004-0.267-0.046-0.172-0.105-0.248-0.189c-0.075-0.082-0.13-0.168-0.165-0.258-0.037-0.091-0.057-0.183-0.062-0.274l0.193-0.042z"></path>
<path fill="#8a8a8a" style="fill: var(--color1, #8a8a8a)" d="M26.834 4.709l-1.116 1.236-0.515-0.465c-0.055-0.049-0.094-0.106-0.118-0.17-0.025-0.063-0.038-0.129-0.037-0.197-0-0.068 0.012-0.133 0.036-0.198 0.023-0.063 0.057-0.119 0.101-0.168 0.061-0.067 0.134-0.118 0.22-0.152 0.085-0.033 0.172-0.044 0.261-0.033 0.088 0.012 0.169 0.051 0.242 0.117l0.369 0.333 0.401-0.444 0.157 0.141zM26.151 5.15l-0.36-0.325c-0.043-0.039-0.091-0.061-0.143-0.066-0.053-0.006-0.107 0.003-0.16 0.026-0.054 0.023-0.102 0.057-0.144 0.104-0.044 0.049-0.073 0.102-0.087 0.159-0.015 0.058-0.015 0.114-0.002 0.166s0.041 0.097 0.082 0.134l0.35 0.316 0.464-0.513z"></path>
<path fill="#8a8a8a" style="fill: var(--color1, #8a8a8a)" d="M25.736 3.747l-0.994 1.336-0.572-0.426c-0.059-0.044-0.104-0.097-0.134-0.158-0.031-0.060-0.050-0.125-0.055-0.193-0.006-0.067-0.001-0.134 0.018-0.2 0.017-0.065 0.046-0.124 0.085-0.177 0.046-0.061 0.101-0.111 0.166-0.148 0.064-0.038 0.131-0.061 0.203-0.068 0.070-0.008 0.139 0.001 0.207 0.028l0.057-0.753 0.192 0.143-0.052 0.707 0.354 0.263 0.357-0.48 0.169 0.126zM25.098 4.251l-0.404-0.301c-0.046-0.035-0.096-0.052-0.148-0.052-0.055 0-0.107 0.015-0.158 0.043-0.052 0.028-0.096 0.066-0.132 0.115-0.037 0.050-0.060 0.104-0.068 0.162-0.009 0.059-0.005 0.115 0.013 0.167s0.048 0.095 0.092 0.127l0.393 0.293 0.413-0.555z"></path>
<path fill="#8a8a8a" style="fill: var(--color1, #8a8a8a)" d="M23.869 2.465c0.101 0.059 0.181 0.133 0.24 0.222s0.098 0.185 0.118 0.29c0.018 0.105 0.018 0.21 0 0.315-0.019 0.107-0.055 0.206-0.109 0.298-0.056 0.096-0.126 0.177-0.211 0.244-0.086 0.067-0.18 0.117-0.28 0.149-0.102 0.032-0.206 0.044-0.311 0.035-0.106-0.008-0.208-0.040-0.305-0.097-0.101-0.059-0.181-0.134-0.238-0.224s-0.096-0.187-0.114-0.292c-0.018-0.105-0.018-0.21-0-0.315s0.054-0.203 0.107-0.293c0.056-0.096 0.127-0.178 0.212-0.246 0.084-0.067 0.178-0.116 0.28-0.149 0.1-0.032 0.203-0.043 0.308-0.034s0.206 0.042 0.303 0.099zM23.934 3.481c0.043-0.073 0.073-0.15 0.090-0.233 0.015-0.082 0.017-0.161 0.004-0.239s-0.040-0.15-0.082-0.217c-0.043-0.067-0.101-0.122-0.175-0.165-0.077-0.045-0.155-0.069-0.235-0.072s-0.156 0.010-0.23 0.039c-0.075 0.029-0.143 0.070-0.204 0.125-0.062 0.054-0.114 0.115-0.154 0.184-0.043 0.073-0.072 0.15-0.087 0.232-0.017 0.081-0.018 0.161-0.004 0.239 0.012 0.079 0.039 0.151 0.082 0.217 0.041 0.066 0.098 0.12 0.171 0.163 0.077 0.045 0.155 0.069 0.235 0.072 0.079 0.005 0.156-0.008 0.23-0.036 0.073-0.029 0.141-0.071 0.204-0.125 0.062-0.053 0.113-0.114 0.154-0.184z"></path>
<path fill="#8a8a8a" style="fill: var(--color1, #8a8a8a)" d="M22.889 2.222c-0.018-0.031-0.047-0.066-0.086-0.104-0.041-0.038-0.094-0.072-0.159-0.102-0.089-0.041-0.166-0.053-0.229-0.036-0.065 0.018-0.124 0.064-0.177 0.138-0.054 0.073-0.111 0.173-0.17 0.301l-0.375 0.811-0.192-0.089 0.356-0.768c0.052-0.112 0.105-0.212 0.16-0.301s0.115-0.159 0.181-0.213c0.066-0.052 0.141-0.081 0.226-0.087 0.084-0.006 0.182 0.017 0.294 0.069 0.071 0.033 0.13 0.070 0.176 0.11s0.085 0.087 0.116 0.139l-0.121 0.133z"></path>
<path fill="#8a8a8a" style="fill: var(--color1, #8a8a8a)" d="M20.621 1.234l0.063-0.177 1.064 0.381-0.561 1.567-1.044-0.374 0.063-0.177 0.845 0.303 0.182-0.508-0.735-0.263 0.059-0.166 0.735 0.263 0.194-0.541-0.865-0.31z"></path>
<path fill="#8a8a8a" style="fill: var(--color1, #8a8a8a)" d="M20.156 1.776c-0.024 0.099-0.064 0.191-0.12 0.277-0.058 0.087-0.129 0.162-0.213 0.223-0.086 0.063-0.182 0.105-0.289 0.128-0.107 0.024-0.221 0.021-0.343-0.008-0.144-0.035-0.26-0.099-0.347-0.19-0.087-0.090-0.144-0.193-0.169-0.309l0.187-0.066c0.015 0.076 0.043 0.14 0.084 0.192 0.039 0.053 0.085 0.095 0.139 0.125 0.052 0.030 0.106 0.052 0.16 0.065 0.090 0.022 0.174 0.023 0.253 0.003 0.077-0.020 0.147-0.054 0.209-0.104s0.114-0.109 0.157-0.179c0.041-0.069 0.070-0.141 0.089-0.217 0.020-0.084 0.026-0.167 0.018-0.252-0.010-0.084-0.033-0.162-0.069-0.234s-0.084-0.133-0.143-0.184-0.13-0.087-0.211-0.107c-0.056-0.014-0.116-0.018-0.18-0.012s-0.127 0.022-0.188 0.051c-0.062 0.030-0.116 0.075-0.163 0.134l-0.148-0.135c0.053-0.072 0.121-0.128 0.205-0.167s0.172-0.063 0.266-0.071c0.092-0.008 0.18-0.002 0.263 0.018 0.111 0.027 0.207 0.075 0.288 0.145 0.081 0.071 0.146 0.154 0.195 0.25 0.047 0.097 0.078 0.199 0.092 0.307 0.012 0.109 0.006 0.215-0.019 0.316z"></path>
<path fill="#8a8a8a" style="fill: var(--color1, #8a8a8a)" d="M17.216 1.867l0.569 0.077 0.199-1.464 0.209 0.028-0.199 1.464 0.569 0.077-0.025 0.186-1.348-0.183 0.025-0.186z"></path>
<path fill="#8a8a8a" style="fill: var(--color1, #8a8a8a)" d="M16.122 1.665c0.037 0.045 0.096 0.087 0.176 0.126s0.17 0.061 0.27 0.064c0.128 0.005 0.224-0.016 0.286-0.062s0.096-0.111 0.099-0.196c0.002-0.059-0.012-0.107-0.041-0.142s-0.076-0.066-0.14-0.090c-0.065-0.024-0.147-0.050-0.246-0.078-0.115-0.029-0.213-0.064-0.296-0.103s-0.146-0.090-0.189-0.153c-0.043-0.061-0.063-0.142-0.059-0.242 0.004-0.106 0.034-0.193 0.090-0.259s0.13-0.115 0.224-0.144c0.092-0.029 0.195-0.042 0.309-0.037 0.259 0.010 0.482 0.097 0.668 0.26l-0.108 0.174c-0.033-0.036-0.078-0.072-0.134-0.108-0.058-0.037-0.124-0.068-0.198-0.094-0.076-0.025-0.156-0.039-0.24-0.042-0.119-0.005-0.212 0.013-0.279 0.053-0.067 0.041-0.103 0.103-0.106 0.186-0.002 0.062 0.014 0.113 0.050 0.152 0.034 0.039 0.087 0.072 0.158 0.1s0.157 0.056 0.26 0.085c0.111 0.032 0.205 0.067 0.28 0.102 0.075 0.037 0.131 0.084 0.168 0.14 0.035 0.056 0.051 0.128 0.048 0.215-0.004 0.106-0.033 0.195-0.088 0.266s-0.128 0.124-0.22 0.158c-0.092 0.034-0.195 0.049-0.309 0.044-0.111-0.004-0.211-0.025-0.3-0.063-0.091-0.038-0.17-0.087-0.238-0.148l0.105-0.167z"></path>
<path fill="#8a8a8a" style="fill: var(--color1, #8a8a8a)" d="M15.519 0.357l0.096 1.662-0.693 0.040c-0.073 0.004-0.141-0.007-0.204-0.035-0.063-0.026-0.118-0.064-0.166-0.113-0.048-0.047-0.087-0.102-0.115-0.165-0.029-0.061-0.045-0.124-0.049-0.19-0.005-0.091 0.010-0.178 0.046-0.263 0.036-0.083 0.089-0.153 0.159-0.209 0.070-0.054 0.155-0.084 0.253-0.090l0.496-0.029-0.035-0.597 0.211-0.012zM15.354 1.153l-0.485 0.028c-0.058 0.003-0.107 0.022-0.147 0.056-0.042 0.034-0.073 0.078-0.093 0.132-0.022 0.054-0.031 0.113-0.027 0.175 0.004 0.066 0.021 0.123 0.052 0.173 0.031 0.051 0.070 0.091 0.117 0.118s0.098 0.039 0.152 0.036l0.471-0.027-0.040-0.691z"></path>
<path fill="#8a8a8a" style="fill: var(--color1, #8a8a8a)" d="M14.055 0.465l0.262 1.644-0.704 0.112c-0.073 0.012-0.141 0.007-0.207-0.015-0.065-0.020-0.124-0.052-0.177-0.095-0.053-0.042-0.096-0.093-0.131-0.152-0.035-0.058-0.057-0.119-0.067-0.184-0.012-0.076-0.009-0.15 0.010-0.222 0.017-0.072 0.048-0.137 0.093-0.193 0.043-0.056 0.098-0.099 0.165-0.128l-0.498-0.566 0.236-0.038 0.469 0.531 0.435-0.069-0.094-0.591 0.208-0.033zM13.97 1.274l-0.498 0.079c-0.057 0.009-0.104 0.032-0.141 0.070-0.038 0.039-0.064 0.087-0.079 0.143-0.016 0.056-0.020 0.115-0.010 0.175 0.010 0.062 0.033 0.116 0.069 0.162 0.036 0.048 0.079 0.084 0.129 0.108s0.101 0.031 0.156 0.023l0.484-0.077-0.109-0.683z"></path>
<path fill="#8a8a8a" style="fill: var(--color1, #8a8a8a)" d="M11.844 0.901c0.113-0.031 0.222-0.036 0.326-0.016s0.201 0.060 0.29 0.118c0.088 0.060 0.163 0.134 0.225 0.221 0.063 0.088 0.108 0.184 0.136 0.286 0.029 0.107 0.038 0.214 0.026 0.321-0.013 0.109-0.043 0.21-0.090 0.304-0.049 0.096-0.113 0.178-0.193 0.247-0.080 0.070-0.174 0.12-0.283 0.15-0.113 0.031-0.222 0.035-0.327 0.013s-0.201-0.063-0.289-0.123c-0.088-0.060-0.163-0.134-0.225-0.221s-0.107-0.181-0.135-0.282c-0.029-0.107-0.038-0.215-0.027-0.323 0.012-0.107 0.042-0.208 0.090-0.304 0.047-0.094 0.111-0.175 0.191-0.244s0.175-0.118 0.283-0.147zM12.614 1.567c-0.022-0.081-0.056-0.157-0.103-0.227-0.048-0.068-0.103-0.125-0.168-0.171s-0.135-0.077-0.212-0.093c-0.077-0.016-0.157-0.013-0.24 0.009-0.086 0.023-0.158 0.062-0.216 0.117s-0.102 0.118-0.133 0.191c-0.032 0.073-0.050 0.151-0.053 0.233-0.005 0.082 0.003 0.162 0.023 0.239 0.022 0.081 0.057 0.156 0.105 0.224 0.046 0.068 0.102 0.125 0.168 0.171 0.065 0.047 0.135 0.078 0.212 0.093 0.076 0.017 0.154 0.014 0.236-0.008 0.086-0.023 0.158-0.062 0.216-0.117 0.059-0.053 0.104-0.116 0.136-0.19 0.030-0.073 0.048-0.151 0.053-0.233 0.006-0.081-0.002-0.161-0.023-0.239z"></path>
<path fill="#8a8a8a" style="fill: var(--color1, #8a8a8a)" d="M10.983 1.431c-0.035-0.008-0.080-0.012-0.135-0.012-0.056 0.003-0.117 0.017-0.185 0.042-0.092 0.035-0.154 0.081-0.186 0.138-0.033 0.059-0.041 0.134-0.026 0.223 0.014 0.090 0.046 0.201 0.096 0.332l0.317 0.835-0.197 0.075-0.3-0.791c-0.044-0.115-0.078-0.224-0.103-0.325s-0.033-0.194-0.025-0.279c0.008-0.083 0.041-0.158 0.096-0.222 0.054-0.064 0.139-0.118 0.255-0.162 0.073-0.028 0.14-0.044 0.202-0.049s0.122-0 0.181 0.014l0.010 0.179z"></path>
<path fill="#8a8a8a" style="fill: var(--color1, #8a8a8a)" d="M8.693 2.361l-0.082-0.169 1.017-0.494 0.727 1.498-0.998 0.485-0.082-0.169 0.808-0.393-0.236-0.485-0.702 0.341-0.077-0.158 0.702-0.341-0.251-0.517-0.827 0.402z"></path>
<path fill="#8a8a8a" style="fill: var(--color1, #8a8a8a)" d="M8.753 3.071c0.054 0.086 0.092 0.179 0.114 0.28 0.022 0.103 0.025 0.205 0.011 0.309-0.015 0.105-0.052 0.204-0.111 0.296-0.058 0.093-0.14 0.173-0.246 0.24-0.126 0.079-0.252 0.117-0.379 0.115-0.126-0.001-0.239-0.032-0.339-0.095l0.084-0.18c0.065 0.042 0.13 0.067 0.196 0.074 0.065 0.009 0.127 0.005 0.186-0.012 0.058-0.016 0.111-0.039 0.159-0.069 0.078-0.049 0.138-0.108 0.179-0.178 0.040-0.069 0.064-0.143 0.071-0.222s0.002-0.158-0.019-0.237c-0.021-0.077-0.052-0.149-0.093-0.215-0.046-0.073-0.101-0.136-0.168-0.188-0.067-0.052-0.139-0.090-0.215-0.114s-0.153-0.033-0.232-0.026-0.153 0.032-0.223 0.076c-0.049 0.031-0.094 0.071-0.135 0.12s-0.073 0.106-0.095 0.17c-0.022 0.065-0.028 0.135-0.018 0.21l-0.2 0.012c-0.015-0.088-0.007-0.176 0.023-0.264s0.075-0.167 0.135-0.24c0.058-0.072 0.124-0.13 0.197-0.176 0.097-0.061 0.198-0.096 0.305-0.105 0.107-0.008 0.212 0.003 0.315 0.035 0.102 0.034 0.197 0.083 0.284 0.149 0.087 0.068 0.158 0.146 0.213 0.235z"></path>
<path fill="#8a8a8a" style="fill: var(--color1, #8a8a8a)" d="M6.764 5.231l0.454-0.351-0.903-1.169 0.167-0.129 0.903 1.169 0.454-0.351 0.115 0.148-1.076 0.832-0.115-0.148z"></path>
<path fill="#8a8a8a" style="fill: var(--color1, #8a8a8a)" d="M5.851 5.874c0.058 0.005 0.13-0.007 0.213-0.037s0.162-0.079 0.235-0.147c0.093-0.088 0.145-0.171 0.156-0.248s-0.012-0.146-0.070-0.208c-0.041-0.043-0.084-0.067-0.131-0.070s-0.1 0.009-0.162 0.037c-0.063 0.029-0.139 0.069-0.227 0.121-0.101 0.061-0.195 0.108-0.281 0.139s-0.166 0.041-0.241 0.028c-0.074-0.012-0.145-0.055-0.214-0.127-0.073-0.077-0.114-0.159-0.122-0.246s0.009-0.173 0.054-0.261c0.043-0.086 0.107-0.168 0.19-0.247 0.189-0.178 0.407-0.276 0.654-0.295l0.049 0.199c-0.049-0.001-0.106 0.005-0.171 0.020-0.067 0.016-0.136 0.041-0.206 0.075-0.071 0.037-0.137 0.084-0.198 0.142-0.086 0.082-0.139 0.16-0.158 0.236-0.018 0.077 0.002 0.146 0.059 0.206 0.043 0.045 0.091 0.069 0.144 0.071 0.052 0.003 0.113-0.012 0.182-0.043s0.15-0.073 0.242-0.126c0.101-0.057 0.191-0.1 0.269-0.128 0.079-0.028 0.152-0.035 0.218-0.022 0.065 0.014 0.127 0.053 0.187 0.117 0.073 0.077 0.116 0.16 0.129 0.249s-0.001 0.178-0.041 0.268c-0.040 0.090-0.102 0.173-0.185 0.252-0.081 0.076-0.166 0.133-0.255 0.17-0.091 0.038-0.181 0.061-0.272 0.067l-0.046-0.192z"></path>
<path fill="#8a8a8a" style="fill: var(--color1, #8a8a8a)" d="M4.542 5.335l1.251 1.098-0.458 0.522c-0.048 0.055-0.104 0.095-0.168 0.121-0.063 0.026-0.128 0.039-0.197 0.039-0.067 0.001-0.134-0.010-0.198-0.034-0.064-0.022-0.12-0.055-0.169-0.099-0.068-0.060-0.12-0.132-0.155-0.218-0.034-0.084-0.047-0.171-0.037-0.26 0.011-0.088 0.049-0.169 0.114-0.243l0.328-0.374-0.449-0.394 0.139-0.159zM4.994 6.012l-0.32 0.365c-0.038 0.043-0.059 0.091-0.064 0.144-0.005 0.054 0.004 0.107 0.029 0.159 0.023 0.054 0.059 0.101 0.106 0.143 0.049 0.043 0.103 0.071 0.16 0.084 0.059 0.014 0.114 0.014 0.166-0.001s0.096-0.042 0.132-0.083l0.311-0.354-0.52-0.456z"></path>
<path fill="#8a8a8a" style="fill: var(--color1, #8a8a8a)" d="M3.587 6.459l1.353 0.97-0.415 0.58c-0.043 0.060-0.095 0.105-0.156 0.137-0.060 0.032-0.124 0.052-0.192 0.059-0.067 0.008-0.134 0.003-0.201-0.014-0.065-0.016-0.125-0.043-0.178-0.082-0.062-0.045-0.113-0.099-0.151-0.163-0.039-0.063-0.063-0.13-0.072-0.202-0.009-0.070-0.001-0.139 0.025-0.207l-0.753-0.044 0.139-0.194 0.707 0.039 0.257-0.358-0.486-0.348 0.123-0.172zM4.103 7.088l-0.293 0.41c-0.034 0.047-0.050 0.097-0.049 0.149 0.001 0.055 0.017 0.107 0.046 0.157 0.029 0.051 0.068 0.095 0.117 0.13 0.051 0.036 0.105 0.058 0.164 0.065 0.060 0.008 0.115 0.003 0.167-0.016s0.094-0.050 0.125-0.095l0.285-0.398-0.562-0.403z"></path>
<path fill="#8a8a8a" style="fill: var(--color1, #8a8a8a)" d="M2.347 8.329c0.058-0.102 0.131-0.183 0.218-0.243s0.184-0.101 0.288-0.123c0.105-0.020 0.21-0.021 0.315-0.005 0.107 0.017 0.207 0.052 0.299 0.105 0.097 0.055 0.179 0.124 0.247 0.207 0.068 0.085 0.119 0.178 0.153 0.278 0.034 0.102 0.047 0.205 0.040 0.311-0.006 0.106-0.037 0.208-0.092 0.306-0.058 0.102-0.131 0.183-0.22 0.242s-0.186 0.099-0.291 0.118c-0.105 0.020-0.21 0.021-0.315 0.005s-0.204-0.051-0.295-0.102c-0.097-0.055-0.179-0.124-0.249-0.208-0.068-0.083-0.119-0.176-0.153-0.278-0.033-0.1-0.046-0.202-0.039-0.308s0.039-0.207 0.094-0.305zM3.362 8.249c-0.073-0.042-0.151-0.070-0.234-0.087-0.082-0.014-0.162-0.014-0.239-0.001s-0.15 0.042-0.215 0.085c-0.066 0.043-0.12 0.103-0.162 0.178-0.044 0.078-0.067 0.156-0.069 0.236s0.012 0.156 0.043 0.229c0.030 0.074 0.072 0.142 0.128 0.202 0.055 0.062 0.117 0.112 0.186 0.151 0.073 0.042 0.151 0.069 0.233 0.083 0.081 0.015 0.161 0.016 0.239 0.001 0.079-0.013 0.151-0.041 0.215-0.085 0.065-0.042 0.119-0.1 0.16-0.173 0.044-0.078 0.067-0.156 0.069-0.236 0.003-0.079-0.010-0.156-0.040-0.23-0.031-0.073-0.073-0.14-0.128-0.202-0.054-0.061-0.116-0.111-0.186-0.151z"></path>
<path fill="#8a8a8a" style="fill: var(--color1, #8a8a8a)" d="M2.123 9.302c-0.031 0.019-0.065 0.048-0.103 0.088-0.037 0.042-0.071 0.095-0.1 0.161-0.040 0.090-0.051 0.166-0.033 0.229 0.019 0.065 0.066 0.123 0.14 0.175 0.074 0.053 0.175 0.109 0.303 0.166l0.816 0.363-0.086 0.193-0.773-0.344c-0.113-0.050-0.214-0.102-0.303-0.155s-0.161-0.113-0.216-0.178c-0.053-0.065-0.083-0.14-0.090-0.225-0.007-0.084 0.014-0.182 0.064-0.295 0.032-0.071 0.068-0.131 0.107-0.178s0.086-0.087 0.137-0.118l0.134 0.119z"></path>
<path fill="#8a8a8a" style="fill: var(--color1, #8a8a8a)" d="M1.161 11.613l-0.178-0.060 0.361-1.071 1.578 0.532-0.354 1.051-0.178-0.060 0.287-0.851-0.511-0.172-0.249 0.74-0.167-0.056 0.249-0.74-0.544-0.184-0.294 0.871z"></path>
<path fill="#8a8a8a" style="fill: var(--color1, #8a8a8a)" d="M1.718 12.034c0.099 0.022 0.192 0.061 0.279 0.116 0.088 0.057 0.164 0.127 0.226 0.21 0.064 0.085 0.108 0.181 0.132 0.287 0.026 0.107 0.024 0.221-0.003 0.343-0.033 0.145-0.095 0.261-0.185 0.35-0.089 0.089-0.191 0.147-0.306 0.173l-0.068-0.186c0.076-0.016 0.139-0.045 0.19-0.087 0.052-0.039 0.093-0.086 0.123-0.14 0.030-0.053 0.051-0.106 0.063-0.161 0.020-0.090 0.020-0.174-0.001-0.253-0.021-0.077-0.057-0.146-0.107-0.207s-0.111-0.112-0.181-0.154c-0.070-0.040-0.142-0.068-0.219-0.086-0.084-0.019-0.168-0.024-0.252-0.014-0.084 0.011-0.162 0.035-0.233 0.072s-0.132 0.086-0.182 0.146c-0.051 0.061-0.085 0.131-0.103 0.212-0.013 0.056-0.016 0.117-0.010 0.181s0.024 0.127 0.054 0.188c0.031 0.062 0.077 0.115 0.137 0.161l-0.133 0.15c-0.073-0.052-0.13-0.119-0.171-0.202s-0.065-0.171-0.075-0.265c-0.010-0.092-0.005-0.18 0.014-0.264 0.025-0.111 0.072-0.208 0.14-0.29 0.070-0.082 0.152-0.148 0.247-0.199 0.096-0.049 0.198-0.081 0.306-0.097 0.109-0.014 0.214-0.009 0.317 0.014z"></path>
<path fill="#8a8a8a" style="fill: var(--color1, #8a8a8a)" d="M1.848 14.996l0.068-0.57-1.467-0.176 0.025-0.21 1.467 0.176 0.068-0.57 0.186 0.022-0.162 1.35-0.186-0.022z"></path>
<path fill="#8a8a8a" style="fill: var(--color1, #8a8a8a)" d="M1.662 16.093c0.045-0.038 0.086-0.097 0.124-0.178s0.058-0.171 0.060-0.271c0.003-0.128-0.019-0.223-0.066-0.285s-0.113-0.094-0.197-0.096c-0.059-0.001-0.107 0.013-0.142 0.044s-0.064 0.077-0.088 0.141c-0.023 0.065-0.048 0.147-0.074 0.247-0.028 0.115-0.060 0.214-0.098 0.298s-0.088 0.147-0.15 0.191c-0.060 0.044-0.141 0.065-0.241 0.062-0.106-0.002-0.193-0.031-0.261-0.086s-0.117-0.129-0.147-0.222c-0.031-0.091-0.045-0.194-0.042-0.308 0.006-0.259 0.089-0.483 0.25-0.672l0.176 0.105c-0.035 0.034-0.071 0.079-0.106 0.136-0.036 0.059-0.066 0.125-0.091 0.2-0.024 0.076-0.036 0.156-0.038 0.241-0.003 0.119 0.016 0.211 0.057 0.278 0.042 0.067 0.105 0.101 0.188 0.103 0.063 0.001 0.113-0.016 0.151-0.053 0.038-0.035 0.071-0.088 0.097-0.16s0.054-0.158 0.081-0.261c0.031-0.112 0.063-0.206 0.098-0.282 0.036-0.076 0.082-0.133 0.138-0.17 0.056-0.036 0.127-0.053 0.215-0.051 0.106 0.002 0.196 0.030 0.268 0.084s0.126 0.126 0.161 0.217c0.035 0.091 0.052 0.194 0.049 0.308-0.003 0.111-0.022 0.211-0.059 0.301-0.037 0.091-0.085 0.172-0.144 0.241l-0.169-0.102z"></path>
<path fill="#8a8a8a" style="fill: var(--color1, #8a8a8a)" d="M0.359 16.666l1.66-0.122 0.051 0.692c0.005 0.073-0.005 0.141-0.032 0.205-0.025 0.063-0.062 0.119-0.11 0.168-0.047 0.049-0.101 0.088-0.163 0.118-0.061 0.030-0.124 0.047-0.189 0.052-0.090 0.007-0.178-0.007-0.264-0.042-0.084-0.035-0.154-0.087-0.211-0.156-0.055-0.070-0.087-0.154-0.094-0.252l-0.036-0.496-0.596 0.044-0.015-0.21zM1.157 16.819l0.036 0.484c0.004 0.058 0.024 0.106 0.058 0.146 0.034 0.041 0.079 0.072 0.134 0.091 0.055 0.021 0.113 0.029 0.176 0.025 0.065-0.005 0.123-0.023 0.172-0.055 0.051-0.032 0.090-0.072 0.116-0.119s0.037-0.098 0.033-0.153l-0.034-0.47-0.69 0.051z"></path>
<path fill="#8a8a8a" style="fill: var(--color1, #8a8a8a)" d="M0.492 18.174l1.64-0.287 0.123 0.702c0.013 0.072 0.009 0.141-0.011 0.207-0.019 0.065-0.050 0.125-0.093 0.178-0.041 0.053-0.092 0.098-0.15 0.133-0.057 0.035-0.118 0.059-0.183 0.070-0.075 0.013-0.15 0.011-0.222-0.006-0.073-0.016-0.137-0.046-0.194-0.090-0.057-0.042-0.1-0.097-0.131-0.163l-0.559 0.507-0.041-0.236 0.524-0.477-0.076-0.434-0.589 0.103-0.036-0.208zM1.302 18.247l0.087 0.497c0.010 0.057 0.034 0.104 0.072 0.14 0.040 0.037 0.088 0.063 0.144 0.077 0.057 0.015 0.115 0.018 0.175 0.007 0.062-0.011 0.115-0.034 0.161-0.071 0.048-0.037 0.083-0.080 0.106-0.13s0.030-0.102 0.020-0.156l-0.084-0.483-0.681 0.119z"></path>
<path fill="#8a8a8a" style="fill: var(--color1, #8a8a8a)" d="M0.95 20.343c-0.032-0.113-0.039-0.221-0.020-0.326s0.057-0.202 0.114-0.291c0.059-0.089 0.132-0.165 0.217-0.228 0.087-0.064 0.182-0.111 0.284-0.14 0.107-0.031 0.213-0.041 0.32-0.031 0.109 0.011 0.211 0.040 0.305 0.086 0.096 0.047 0.18 0.11 0.25 0.189 0.071 0.079 0.123 0.172 0.154 0.28 0.032 0.113 0.038 0.222 0.018 0.327s-0.060 0.202-0.119 0.29c-0.059 0.089-0.132 0.165-0.217 0.228s-0.179 0.11-0.28 0.139c-0.107 0.031-0.214 0.041-0.323 0.032-0.107-0.010-0.209-0.038-0.305-0.085-0.095-0.046-0.177-0.109-0.247-0.188s-0.12-0.173-0.151-0.281zM1.604 19.563c-0.081 0.023-0.156 0.059-0.226 0.106-0.067 0.049-0.123 0.105-0.168 0.17s-0.075 0.136-0.090 0.214c-0.015 0.078-0.011 0.158 0.013 0.24 0.025 0.086 0.065 0.157 0.12 0.214s0.12 0.101 0.193 0.13c0.074 0.031 0.152 0.047 0.234 0.050 0.082 0.004 0.162-0.005 0.239-0.027 0.081-0.023 0.155-0.059 0.223-0.108 0.068-0.047 0.124-0.104 0.168-0.17 0.046-0.065 0.076-0.137 0.090-0.214 0.016-0.076 0.012-0.155-0.012-0.236-0.025-0.086-0.065-0.157-0.12-0.214-0.054-0.058-0.118-0.102-0.192-0.133-0.073-0.029-0.151-0.046-0.234-0.050-0.081-0.004-0.161 0.005-0.239 0.027z"></path>
<path fill="#8a8a8a" style="fill: var(--color1, #8a8a8a)" d="M1.489 21.196c-0.008 0.035-0.011 0.080-0.010 0.135 0.004 0.056 0.019 0.117 0.045 0.184 0.036 0.092 0.083 0.153 0.141 0.184 0.060 0.032 0.134 0.039 0.223 0.022 0.090-0.015 0.2-0.049 0.331-0.101l0.83-0.33 0.078 0.196-0.787 0.312c-0.115 0.046-0.222 0.082-0.323 0.108s-0.193 0.036-0.278 0.030c-0.084-0.007-0.158-0.038-0.224-0.093-0.065-0.053-0.12-0.137-0.166-0.252-0.029-0.073-0.046-0.14-0.052-0.201s-0.002-0.122 0.011-0.181l0.179-0.013z"></path>
<path fill="#8a8a8a" style="fill: var(--color1, #8a8a8a)" d="M2.477 23.525l-0.167 0.085-0.513-1.007 1.484-0.755 0.503 0.988-0.167 0.085-0.407-0.8-0.481 0.245 0.354 0.696-0.157 0.080-0.354-0.696-0.512 0.261 0.417 0.819z"></path>
<path fill="#8a8a8a" style="fill: var(--color1, #8a8a8a)" d="M3.168 23.425c0.085-0.055 0.178-0.095 0.278-0.118 0.102-0.023 0.205-0.028 0.308-0.015 0.106 0.014 0.205 0.049 0.298 0.106 0.094 0.056 0.175 0.137 0.243 0.242 0.081 0.125 0.121 0.25 0.121 0.377 0.001 0.126-0.029 0.239-0.090 0.34l-0.181-0.081c0.041-0.066 0.065-0.131 0.071-0.197 0.008-0.065 0.004-0.127-0.014-0.186-0.017-0.058-0.041-0.11-0.071-0.158-0.050-0.077-0.11-0.136-0.181-0.176-0.070-0.039-0.144-0.061-0.223-0.068s-0.158 0.001-0.237 0.022c-0.077 0.022-0.148 0.054-0.214 0.097-0.072 0.047-0.134 0.104-0.186 0.17-0.051 0.068-0.088 0.141-0.111 0.217s-0.031 0.154-0.023 0.233 0.034 0.153 0.079 0.222c0.031 0.049 0.072 0.093 0.122 0.133s0.107 0.071 0.172 0.093c0.066 0.021 0.136 0.026 0.211 0.015l0.015 0.2c-0.088 0.016-0.176 0.010-0.264-0.019s-0.168-0.073-0.241-0.132c-0.072-0.057-0.132-0.122-0.179-0.194-0.062-0.096-0.098-0.197-0.11-0.303-0.010-0.107 0-0.212 0.030-0.316 0.032-0.103 0.080-0.198 0.144-0.286 0.066-0.088 0.143-0.16 0.231-0.217z"></path>
<path fill="#8a8a8a" style="fill: var(--color1, #8a8a8a)" d="M5.331 25.355l-0.358-0.449-1.155 0.921-0.131-0.165 1.155-0.921-0.358-0.449 0.147-0.117 0.847 1.064-0.147 0.117z"></path>
<path fill="#8a8a8a" style="fill: var(--color1, #8a8a8a)" d="M6.006 26.286c0.004-0.059-0.009-0.13-0.040-0.213s-0.081-0.161-0.151-0.233c-0.089-0.092-0.173-0.143-0.25-0.153s-0.146 0.014-0.207 0.073c-0.043 0.041-0.065 0.085-0.068 0.132s0.010 0.1 0.039 0.161c0.030 0.062 0.072 0.138 0.124 0.226 0.063 0.1 0.11 0.193 0.144 0.279s0.043 0.166 0.031 0.241c-0.011 0.074-0.052 0.146-0.124 0.215-0.076 0.074-0.158 0.116-0.244 0.126s-0.173-0.007-0.261-0.050c-0.087-0.042-0.17-0.104-0.249-0.186-0.181-0.186-0.282-0.403-0.304-0.65l0.198-0.052c-0.001 0.049 0.007 0.106 0.022 0.171 0.017 0.067 0.043 0.135 0.078 0.205 0.038 0.070 0.086 0.136 0.145 0.196 0.083 0.085 0.162 0.137 0.238 0.154 0.077 0.017 0.145-0.004 0.205-0.062 0.045-0.044 0.068-0.092 0.068-0.145 0.002-0.052-0.013-0.112-0.045-0.181s-0.075-0.149-0.129-0.241c-0.058-0.1-0.102-0.189-0.132-0.267-0.029-0.079-0.037-0.151-0.025-0.218 0.013-0.065 0.051-0.128 0.114-0.189 0.076-0.074 0.159-0.118 0.247-0.132s0.178-0.002 0.268 0.037c0.090 0.039 0.175 0.099 0.254 0.181 0.077 0.080 0.135 0.164 0.174 0.253 0.040 0.090 0.063 0.181 0.071 0.271l-0.191 0.049z"></path>
<path fill="#8a8a8a" style="fill: var(--color1, #8a8a8a)" d="M5.451 27.575l1.079-1.268 0.528 0.45c0.056 0.048 0.097 0.103 0.123 0.166 0.027 0.062 0.041 0.128 0.042 0.196 0.002 0.067-0.008 0.134-0.031 0.199-0.021 0.064-0.053 0.121-0.096 0.171-0.059 0.069-0.13 0.122-0.215 0.159-0.084 0.036-0.17 0.049-0.26 0.041-0.088-0.010-0.17-0.046-0.245-0.11l-0.378-0.322-0.388 0.455-0.161-0.137zM6.121 27.114l0.369 0.315c0.044 0.038 0.092 0.058 0.145 0.062 0.054 0.005 0.107-0.006 0.159-0.031 0.053-0.024 0.101-0.060 0.141-0.108 0.043-0.050 0.070-0.104 0.082-0.161 0.013-0.059 0.012-0.114-0.003-0.166s-0.044-0.096-0.085-0.131l-0.359-0.306-0.448 0.527z"></path>
<path fill="#8a8a8a" style="fill: var(--color1, #8a8a8a)" d="M6.615 28.54l0.949-1.368 0.585 0.407c0.060 0.042 0.107 0.093 0.139 0.154 0.033 0.059 0.054 0.123 0.061 0.191 0.009 0.067 0.005 0.134-0.011 0.201-0.015 0.066-0.041 0.125-0.079 0.179-0.044 0.063-0.097 0.114-0.161 0.154-0.062 0.040-0.129 0.065-0.2 0.075-0.070 0.010-0.139 0.003-0.208-0.021l-0.032 0.754-0.196-0.136 0.029-0.708-0.362-0.251-0.341 0.491-0.173-0.12zM7.236 28.015l0.414 0.288c0.048 0.033 0.098 0.049 0.15 0.047 0.055-0.002 0.107-0.018 0.156-0.048 0.051-0.029 0.094-0.069 0.128-0.119 0.036-0.051 0.057-0.106 0.063-0.165 0.007-0.060 0.001-0.115-0.018-0.167s-0.052-0.093-0.097-0.124l-0.402-0.28-0.394 0.568z"></path>
<path fill="#8a8a8a" style="fill: var(--color1, #8a8a8a)" d="M8.477 29.742c-0.103-0.056-0.185-0.128-0.246-0.215s-0.103-0.182-0.127-0.286c-0.021-0.104-0.024-0.209-0.009-0.315 0.016-0.107 0.049-0.207 0.1-0.301 0.053-0.097 0.121-0.181 0.203-0.25 0.084-0.070 0.176-0.122 0.275-0.157 0.101-0.035 0.205-0.050 0.31-0.044 0.106 0.005 0.209 0.034 0.307 0.088 0.103 0.056 0.184 0.128 0.245 0.217s0.101 0.185 0.123 0.289 0.024 0.209 0.009 0.315c-0.015 0.106-0.048 0.205-0.098 0.297-0.053 0.097-0.121 0.181-0.204 0.252-0.082 0.069-0.174 0.121-0.275 0.157-0.099 0.035-0.201 0.049-0.307 0.043s-0.207-0.036-0.306-0.090zM8.382 28.728c-0.040 0.074-0.068 0.152-0.083 0.235-0.013 0.082-0.012 0.162 0.003 0.239s0.044 0.149 0.089 0.214c0.044 0.065 0.104 0.119 0.18 0.16 0.078 0.043 0.157 0.065 0.237 0.065s0.156-0.015 0.228-0.046c0.074-0.031 0.14-0.075 0.2-0.131 0.061-0.056 0.11-0.119 0.149-0.189 0.040-0.074 0.067-0.152 0.080-0.234 0.014-0.081 0.013-0.161-0.003-0.239-0.014-0.079-0.043-0.15-0.089-0.214-0.043-0.065-0.102-0.117-0.176-0.158-0.078-0.043-0.157-0.065-0.237-0.065-0.079-0.002-0.155 0.012-0.229 0.043-0.073 0.032-0.139 0.075-0.2 0.131-0.060 0.054-0.11 0.117-0.149 0.189z"></path>
<path fill="#8a8a8a" style="fill: var(--color1, #8a8a8a)" d="M9.533 29.994c0.019 0.030 0.049 0.064 0.089 0.101 0.042 0.037 0.096 0.069 0.163 0.097 0.091 0.038 0.167 0.048 0.23 0.028 0.065-0.020 0.122-0.068 0.173-0.143 0.052-0.075 0.105-0.177 0.16-0.306l0.348-0.823 0.194 0.082-0.33 0.78c-0.048 0.114-0.098 0.216-0.15 0.306s-0.11 0.163-0.174 0.219c-0.064 0.055-0.138 0.086-0.223 0.094-0.084 0.009-0.182-0.011-0.296-0.059-0.072-0.030-0.132-0.065-0.18-0.104s-0.088-0.084-0.121-0.135l0.116-0.137z"></path>
<path fill="#8a8a8a" style="fill: var(--color1, #8a8a8a)" d="M11.818 30.903l-0.057 0.179-1.076-0.345 0.508-1.585 1.056 0.338-0.057 0.179-0.855-0.274-0.164 0.514 0.744 0.238-0.054 0.167-0.744-0.238-0.175 0.547 0.875 0.28z"></path>
<path fill="#8a8a8a" style="fill: var(--color1, #8a8a8a)" d="M12.187 30.333c0.021-0.099 0.058-0.193 0.112-0.281 0.055-0.089 0.124-0.166 0.207-0.23 0.084-0.065 0.179-0.111 0.285-0.136 0.106-0.027 0.221-0.028 0.343-0.002 0.145 0.031 0.263 0.091 0.353 0.18 0.090 0.088 0.15 0.189 0.178 0.303l-0.185 0.071c-0.018-0.076-0.047-0.139-0.090-0.189-0.040-0.052-0.088-0.092-0.142-0.121-0.053-0.029-0.107-0.049-0.162-0.061-0.090-0.019-0.174-0.018-0.252 0.004-0.077 0.022-0.145 0.059-0.205 0.11s-0.111 0.112-0.151 0.184c-0.039 0.070-0.066 0.143-0.082 0.22-0.018 0.084-0.021 0.168-0.010 0.252 0.013 0.084 0.038 0.161 0.076 0.232s0.088 0.13 0.149 0.18c0.061 0.050 0.133 0.083 0.214 0.1 0.057 0.012 0.117 0.014 0.181 0.007s0.126-0.026 0.187-0.056c0.061-0.032 0.114-0.078 0.159-0.139l0.152 0.13c-0.051 0.074-0.117 0.132-0.2 0.174s-0.17 0.068-0.263 0.079c-0.092 0.011-0.18 0.008-0.264-0.010-0.112-0.023-0.209-0.069-0.292-0.136-0.083-0.069-0.151-0.15-0.203-0.244-0.050-0.095-0.084-0.197-0.101-0.304-0.015-0.109-0.012-0.214 0.009-0.317z"></path>
<path fill="#8a8a8a" style="fill: var(--color1, #8a8a8a)" d="M15.194 30.169l-0.571-0.060-0.153 1.469-0.21-0.022 0.153-1.469-0.571-0.060 0.020-0.187 1.353 0.141-0.020 0.187z"></path>
<path fill="#8a8a8a" style="fill: var(--color1, #8a8a8a)" d="M16.304 30.339c-0.039-0.044-0.099-0.084-0.18-0.121s-0.172-0.055-0.272-0.056c-0.128-0.001-0.223 0.023-0.284 0.070s-0.092 0.114-0.093 0.199c-0 0.059 0.015 0.106 0.046 0.141s0.078 0.063 0.142 0.085c0.066 0.022 0.148 0.046 0.248 0.070 0.116 0.026 0.215 0.057 0.299 0.094s0.149 0.086 0.194 0.147c0.045 0.060 0.067 0.14 0.066 0.24-0.001 0.106-0.028 0.194-0.082 0.262s-0.127 0.119-0.219 0.151c-0.091 0.032-0.193 0.048-0.308 0.047-0.259-0.002-0.485-0.082-0.676-0.24l0.102-0.177c0.034 0.035 0.080 0.069 0.138 0.104 0.059 0.035 0.126 0.064 0.201 0.088 0.076 0.022 0.157 0.034 0.241 0.035 0.119 0.001 0.211-0.020 0.277-0.061 0.066-0.043 0.099-0.106 0.1-0.189 0-0.063-0.018-0.113-0.055-0.151-0.036-0.038-0.089-0.069-0.161-0.095s-0.159-0.051-0.262-0.077c-0.112-0.029-0.207-0.060-0.283-0.094-0.076-0.035-0.134-0.080-0.172-0.135-0.037-0.055-0.055-0.126-0.055-0.214 0.001-0.106 0.027-0.196 0.079-0.269s0.124-0.128 0.215-0.165c0.091-0.037 0.194-0.055 0.308-0.054 0.111 0.001 0.212 0.019 0.302 0.054 0.092 0.035 0.173 0.082 0.243 0.14l-0.1 0.17z"></path>
<path fill="#8a8a8a" style="fill: var(--color1, #8a8a8a)" d="M16.966 31.63l-0.154-1.658 0.691-0.064c0.073-0.007 0.142 0.003 0.205 0.028 0.063 0.024 0.12 0.059 0.17 0.107 0.050 0.046 0.090 0.099 0.121 0.161 0.031 0.060 0.049 0.123 0.055 0.188 0.008 0.090-0.004 0.179-0.037 0.265-0.033 0.085-0.084 0.156-0.152 0.214-0.069 0.057-0.152 0.089-0.25 0.099l-0.495 0.046 0.055 0.595-0.21 0.020zM17.103 30.828l0.483-0.045c0.058-0.005 0.106-0.026 0.145-0.061 0.041-0.035 0.070-0.080 0.089-0.135 0.020-0.055 0.027-0.114 0.021-0.176-0.006-0.065-0.026-0.122-0.058-0.171-0.033-0.050-0.073-0.088-0.121-0.114s-0.099-0.036-0.154-0.030l-0.469 0.044 0.064 0.689z"></path>
<path fill="#8a8a8a" style="fill: var(--color1, #8a8a8a)" d="M18.386 31.481l-0.312-1.635 0.7-0.134c0.072-0.014 0.141-0.011 0.207 0.008 0.065 0.018 0.125 0.048 0.179 0.090 0.054 0.041 0.099 0.090 0.136 0.148 0.036 0.057 0.061 0.117 0.073 0.182 0.014 0.075 0.013 0.149-0.003 0.223-0.015 0.073-0.044 0.138-0.087 0.196-0.042 0.057-0.095 0.102-0.161 0.133l0.516 0.551-0.235 0.045-0.485-0.516-0.433 0.083 0.112 0.587-0.207 0.040zM18.446 30.669l0.495-0.094c0.057-0.011 0.103-0.036 0.139-0.074 0.037-0.040 0.062-0.089 0.075-0.146 0.015-0.057 0.016-0.115 0.005-0.175-0.012-0.061-0.036-0.115-0.074-0.16-0.038-0.047-0.082-0.082-0.132-0.104s-0.102-0.028-0.156-0.018l-0.481 0.092 0.13 0.679z"></path>
<path fill="#8a8a8a" style="fill: var(--color1, #8a8a8a)" d="M20.477 30.936c-0.112 0.034-0.221 0.043-0.326 0.025s-0.203-0.054-0.293-0.109c-0.089-0.058-0.167-0.129-0.232-0.214-0.065-0.086-0.114-0.18-0.144-0.282-0.032-0.106-0.044-0.213-0.036-0.32 0.009-0.109 0.036-0.211 0.081-0.306 0.046-0.097 0.107-0.181 0.186-0.252 0.078-0.073 0.17-0.125 0.278-0.158 0.112-0.034 0.221-0.042 0.326-0.023s0.203 0.057 0.292 0.115c0.089 0.058 0.167 0.129 0.232 0.214s0.113 0.177 0.143 0.278c0.032 0.106 0.044 0.214 0.037 0.322-0.008 0.107-0.035 0.209-0.081 0.306-0.045 0.095-0.106 0.178-0.184 0.25s-0.171 0.123-0.279 0.156zM19.686 30.294c0.025 0.081 0.061 0.155 0.11 0.224 0.050 0.067 0.107 0.122 0.173 0.166s0.137 0.073 0.215 0.087 0.158 0.008 0.24-0.017c0.085-0.026 0.156-0.067 0.212-0.123s0.099-0.122 0.127-0.195c0.030-0.074 0.045-0.153 0.046-0.235 0.003-0.082-0.008-0.162-0.031-0.238-0.025-0.081-0.062-0.154-0.111-0.221-0.048-0.067-0.106-0.122-0.173-0.166-0.066-0.045-0.138-0.074-0.215-0.087-0.076-0.014-0.155-0.009-0.236 0.015-0.085 0.026-0.156 0.067-0.212 0.123-0.057 0.055-0.1 0.119-0.13 0.194-0.028 0.074-0.044 0.152-0.046 0.235-0.003 0.081 0.007 0.16 0.031 0.238z"></path>
<path fill="#8a8a8a" style="fill: var(--color1, #8a8a8a)" d="M21.371 30.449c0.035 0.007 0.080 0.010 0.135 0.008 0.056-0.004 0.117-0.020 0.183-0.048 0.091-0.038 0.151-0.086 0.182-0.144 0.031-0.060 0.037-0.135 0.019-0.224-0.017-0.090-0.052-0.199-0.106-0.329l-0.342-0.825 0.195-0.081 0.324 0.782c0.047 0.114 0.085 0.221 0.113 0.321s0.039 0.193 0.034 0.278c-0.006 0.084-0.036 0.159-0.090 0.225-0.052 0.066-0.136 0.122-0.25 0.169-0.072 0.030-0.139 0.048-0.201 0.055s-0.122 0.004-0.181-0.009l-0.016-0.179z"></path>
<path fill="#8a8a8a" style="fill: var(--color1, #8a8a8a)" d="M23.703 29.42l0.088 0.166-0.999 0.528-0.777-1.472 0.981-0.518 0.088 0.166-0.794 0.419 0.252 0.477 0.69-0.365 0.082 0.156-0.691 0.365 0.268 0.508 0.813-0.429z"></path>
<path fill="#8a8a8a" style="fill: var(--color1, #8a8a8a)" d="M23.589 28.735c-0.056-0.084-0.097-0.177-0.122-0.276-0.025-0.102-0.031-0.205-0.020-0.308 0.012-0.106 0.046-0.206 0.102-0.299 0.055-0.095 0.134-0.177 0.238-0.247 0.123-0.082 0.249-0.125 0.375-0.126 0.126-0.003 0.24 0.025 0.341 0.085l-0.079 0.182c-0.066-0.040-0.132-0.063-0.198-0.068-0.065-0.007-0.127-0.002-0.186 0.017-0.058 0.018-0.11 0.042-0.157 0.074-0.077 0.051-0.135 0.112-0.174 0.184-0.038 0.070-0.059 0.145-0.065 0.224s0.003 0.158 0.026 0.237c0.023 0.077 0.056 0.148 0.1 0.213 0.048 0.072 0.105 0.133 0.173 0.183 0.069 0.050 0.142 0.086 0.219 0.108s0.154 0.029 0.233 0.019c0.078-0.009 0.152-0.037 0.221-0.083 0.048-0.032 0.092-0.074 0.131-0.124s0.069-0.108 0.090-0.173c0.020-0.066 0.024-0.136 0.012-0.211l0.2-0.018c0.017 0.088 0.012 0.176-0.015 0.264s-0.070 0.169-0.128 0.243c-0.056 0.073-0.12 0.134-0.192 0.182-0.095 0.063-0.195 0.101-0.302 0.114-0.107 0.011-0.212 0.003-0.316-0.026-0.103-0.031-0.199-0.077-0.288-0.14-0.088-0.065-0.162-0.141-0.22-0.228z"></path>
<path fill="#8a8a8a" style="fill: var(--color1, #8a8a8a)" d="M25.556 26.485l-0.443 0.366 0.941 1.139-0.163 0.134-0.941-1.139-0.443 0.366-0.119-0.145 1.048-0.867 0.119 0.145z"></path>
<path fill="#8a8a8a" style="fill: var(--color1, #8a8a8a)" d="M26.413 25.854c-0.059-0.003-0.129 0.011-0.212 0.043s-0.16 0.083-0.23 0.154c-0.091 0.091-0.14 0.175-0.149 0.252s0.017 0.146 0.076 0.206c0.042 0.042 0.086 0.064 0.133 0.066s0.1-0.012 0.161-0.041c0.062-0.031 0.137-0.073 0.224-0.128 0.099-0.064 0.192-0.113 0.277-0.148s0.165-0.046 0.24-0.035c0.074 0.010 0.146 0.050 0.217 0.121 0.075 0.075 0.118 0.156 0.129 0.242s-0.004 0.174-0.046 0.262c-0.041 0.087-0.102 0.171-0.182 0.252-0.183 0.183-0.398 0.288-0.645 0.313l-0.055-0.197c0.049 0 0.106-0.008 0.171-0.025 0.066-0.018 0.134-0.045 0.204-0.081 0.070-0.039 0.134-0.088 0.194-0.148 0.084-0.084 0.134-0.164 0.151-0.24 0.015-0.077-0.006-0.145-0.065-0.204-0.044-0.044-0.093-0.066-0.146-0.066-0.052-0.001-0.112 0.015-0.181 0.048s-0.148 0.077-0.239 0.133c-0.099 0.060-0.188 0.105-0.265 0.136-0.078 0.030-0.151 0.039-0.217 0.028-0.065-0.012-0.129-0.049-0.191-0.111-0.075-0.075-0.12-0.157-0.136-0.245s-0.004-0.178 0.033-0.269 0.097-0.176 0.177-0.257c0.078-0.078 0.162-0.138 0.25-0.177 0.090-0.041 0.18-0.066 0.27-0.075l0.051 0.191z"></path>
<path fill="#8a8a8a" style="fill: var(--color1, #8a8a8a)" d="M27.775 26.314l-1.287-1.056 0.44-0.537c0.047-0.057 0.101-0.099 0.164-0.126 0.062-0.028 0.127-0.044 0.195-0.046 0.067-0.003 0.134 0.006 0.199 0.027 0.064 0.020 0.122 0.051 0.172 0.093 0.070 0.058 0.124 0.128 0.163 0.212 0.037 0.083 0.052 0.169 0.045 0.259-0.008 0.089-0.043 0.171-0.106 0.247l-0.315 0.384 0.462 0.379-0.134 0.163zM27.302 25.653l0.308-0.375c0.037-0.045 0.056-0.093 0.059-0.146 0.004-0.054-0.008-0.106-0.034-0.158-0.025-0.053-0.062-0.099-0.11-0.139-0.051-0.042-0.105-0.068-0.163-0.079-0.059-0.012-0.114-0.010-0.166 0.006s-0.095 0.045-0.13 0.088l-0.299 0.364 0.535 0.439z"></path>
<path fill="#8a8a8a" style="fill: var(--color1, #8a8a8a)" d="M28.665 25.204l-1.381-0.93 0.398-0.591c0.041-0.061 0.091-0.108 0.151-0.141 0.059-0.034 0.122-0.055 0.19-0.064 0.067-0.010 0.134-0.007 0.201 0.008 0.066 0.014 0.126 0.040 0.18 0.076 0.064 0.043 0.116 0.096 0.156 0.159 0.041 0.062 0.067 0.128 0.078 0.199 0.011 0.070 0.005 0.139-0.018 0.208l0.754 0.021-0.133 0.198-0.708-0.019-0.246 0.366 0.496 0.334-0.118 0.175zM28.131 24.59l0.281-0.418c0.032-0.048 0.047-0.098 0.045-0.151-0.003-0.055-0.020-0.107-0.051-0.156-0.030-0.050-0.070-0.093-0.121-0.127-0.052-0.035-0.107-0.055-0.166-0.061-0.060-0.006-0.115 0.001-0.167 0.021s-0.092 0.053-0.123 0.098l-0.274 0.407 0.574 0.386z"></path>
<path fill="#8a8a8a" style="fill: var(--color1, #8a8a8a)" d="M29.885 23.237c-0.054 0.104-0.124 0.187-0.21 0.25s-0.18 0.107-0.283 0.132c-0.104 0.023-0.209 0.028-0.315 0.015-0.107-0.014-0.208-0.045-0.302-0.095-0.098-0.051-0.183-0.118-0.253-0.199-0.071-0.083-0.125-0.174-0.162-0.273-0.037-0.101-0.054-0.204-0.050-0.309 0.003-0.106 0.030-0.209 0.082-0.309 0.054-0.104 0.125-0.187 0.212-0.249s0.183-0.105 0.287-0.128 0.209-0.028 0.315-0.015c0.106 0.013 0.205 0.044 0.298 0.093 0.098 0.051 0.183 0.118 0.255 0.2 0.071 0.081 0.124 0.172 0.162 0.273 0.037 0.099 0.053 0.201 0.049 0.306s-0.032 0.208-0.084 0.308zM28.873 23.351c0.075 0.039 0.154 0.065 0.237 0.079 0.082 0.011 0.162 0.009 0.239-0.007s0.148-0.047 0.212-0.093c0.064-0.046 0.117-0.107 0.156-0.183 0.041-0.079 0.062-0.158 0.061-0.238s-0.017-0.156-0.050-0.228c-0.032-0.073-0.077-0.139-0.135-0.198-0.057-0.060-0.121-0.108-0.191-0.145-0.075-0.039-0.153-0.064-0.236-0.076-0.082-0.013-0.161-0.010-0.239 0.007-0.079 0.015-0.149 0.046-0.212 0.093-0.064 0.044-0.115 0.104-0.154 0.179-0.041 0.079-0.062 0.158-0.061 0.238-0.001 0.079 0.015 0.155 0.047 0.228 0.033 0.072 0.078 0.138 0.135 0.198 0.056 0.059 0.119 0.107 0.191 0.145z"></path>
<path fill="#8a8a8a" style="fill: var(--color1, #8a8a8a)" d="M30.077 22.262c0.030-0.020 0.063-0.050 0.1-0.091 0.036-0.043 0.067-0.098 0.094-0.164 0.037-0.091 0.045-0.168 0.025-0.23-0.021-0.064-0.070-0.121-0.146-0.171-0.076-0.051-0.178-0.103-0.309-0.156l-0.828-0.336 0.079-0.196 0.784 0.318c0.114 0.046 0.217 0.095 0.308 0.145s0.165 0.107 0.222 0.171c0.055 0.063 0.088 0.137 0.097 0.222 0.010 0.083-0.008 0.182-0.055 0.297-0.029 0.072-0.063 0.133-0.101 0.181s-0.083 0.090-0.133 0.123l-0.138-0.114z"></path>
<path fill="#8a8a8a" style="fill: var(--color1, #8a8a8a)" d="M30.954 19.955l0.179 0.055-0.328 1.081-1.593-0.484 0.322-1.061 0.18 0.055-0.261 0.859 0.516 0.157 0.227-0.747 0.168 0.051-0.227 0.747 0.55 0.167 0.267-0.88z"></path>
<path fill="#8a8a8a" style="fill: var(--color1, #8a8a8a)" d="M30.4 19.493c-0.1-0.019-0.194-0.055-0.283-0.106-0.090-0.054-0.168-0.121-0.234-0.202-0.067-0.083-0.114-0.177-0.142-0.282-0.029-0.106-0.032-0.22-0.009-0.343 0.028-0.146 0.085-0.265 0.173-0.356 0.086-0.092 0.186-0.153 0.3-0.184l0.075 0.184c-0.075 0.019-0.138 0.050-0.187 0.093-0.051 0.041-0.090 0.089-0.118 0.145-0.028 0.054-0.047 0.108-0.057 0.163-0.017 0.091-0.014 0.175 0.009 0.252 0.024 0.076 0.062 0.144 0.114 0.203s0.115 0.109 0.187 0.148c0.071 0.037 0.145 0.063 0.221 0.078 0.084 0.016 0.168 0.018 0.252 0.005 0.084-0.014 0.161-0.041 0.23-0.080s0.129-0.090 0.177-0.152c0.049-0.062 0.081-0.134 0.096-0.216 0.011-0.057 0.012-0.117 0.003-0.181s-0.029-0.126-0.060-0.186c-0.033-0.060-0.080-0.112-0.142-0.156l0.127-0.155c0.075 0.049 0.134 0.115 0.177 0.196s0.071 0.169 0.084 0.262c0.013 0.092 0.011 0.18-0.005 0.264-0.021 0.112-0.065 0.21-0.13 0.295-0.067 0.084-0.147 0.153-0.24 0.207-0.094 0.052-0.195 0.088-0.302 0.107-0.108 0.018-0.214 0.016-0.317-0.003z"></path>
<path fill="#8a8a8a" style="fill: var(--color1, #8a8a8a)" d="M30.169 16.576l-0.051 0.572 1.471 0.131-0.019 0.21-1.471-0.131-0.051 0.572-0.187-0.017 0.12-1.355 0.187 0.017z"></path>
</symbol>
<symbol id="slider-nav-left" viewBox="0 0 32 32"><path style="fill:var(--color1, #000)" opacity=".6" d="M32 16c0 8.837-7.163 16-16 16S0 24.837 0 16 7.163 0 16 0s16 7.163 16 16z"/><path fill="#fff" style="fill:var(--color2, #fff)" d="M25.584 16.857a1.213 1.213 0 0 0 0-1.714L17.87 7.429a1.213 1.213 0 0 0-1.714 1.714L23.013 16l-6.857 6.857a1.213 1.213 0 0 0 1.714 1.714l7.714-7.714zm-18.311.355h17.455v-2.424H7.273v2.424z"/></symbol>
<symbol id="slider-nav-right" viewBox="0 0 32 32"><path style="fill:var(--color1, #000)" opacity=".6" d="M0 16c0 8.837 7.163 16 16 16s16-7.163 16-16S24.837 0 16 0 0 7.163 0 16z"/><path fill="#fff" style="fill:var(--color2, #fff)" d="M6.416 16.857a1.213 1.213 0 0 1 0-1.714l7.714-7.714a1.213 1.213 0 0 1 1.714 1.714L8.987 16l6.857 6.857a1.213 1.213 0 0 1-1.714 1.714l-7.714-7.714zm18.311.355H7.272v-2.424h17.455v2.424z"/></symbol>
<symbol id="close" viewBox="0 0 20 20"><path d="m10.707 10 5.896-5.896a.5.5 0 0 0-.707-.707L10 9.293 4.104 3.397a.5.5 0 0 0-.707.707L9.293 10l-5.896 5.896a.5.5 0 0 0 .708.707l5.897-5.896 5.896 5.896a.498.498 0 0 0 .708 0 .5.5 0 0 0 0-.707L10.71 10z"/></symbol>
</defs>
</svg>
